<svg xmlns="http://www.w3.org/2000/svg" width="256" height="52" viewBox="0 0 256 52">
    <defs>
        <style>
            .cls-2{fill:#1a1818}
        </style>
    </defs>
    <g id="_9" data-name="9" transform="translate(-1512 -1076)">
        <path id="사각형_1056" data-name="사각형 1056" transform="translate(1512 1076)" style="fill:none;opacity:.2" d="M0 0h256v52H0z"/>
        <g id="그룹_1270" data-name="그룹 1270" transform="translate(1321.953 788.254)">
            <g id="그룹_1270-2" data-name="그룹 1270" transform="translate(305.855 304.443)">
                <path id="패스_1546" data-name="패스 1546" class="cls-2" d="M378.2 318h-6.389l-1.189 3.357h-3.871l6.225-16.531h4.267l6.155 16.531h-4.011zm-5.177-3.357h4.011l-1.982-5.713z" transform="translate(-366.749 -304.822)"/>
                <path id="패스_1547" data-name="패스 1547" class="cls-2" d="M395.6 321.353v-16.531h3.73v16.531z" transform="translate(-376.921 -304.822)"/>
            </g>
            <g id="그룹_1273" data-name="그룹 1273" transform="translate(194.047 303.746)">
                <g id="그룹_1272" data-name="그룹 1272">
                    <g id="그룹_1271" data-name="그룹 1271">
                        <path id="패스_1548" data-name="패스 1548" class="cls-2" d="M203.306 309.59a2.5 2.5 0 0 0-2.75-2.078 2.032 2.032 0 0 0-2.258 1.773c0 .8.5 1.381 1.633 1.585l2.215.421c3.15.586 4.783 2.606 4.783 4.966 0 2.6-2.165 5.233-6.106 5.233-4.574 0-6.541-2.968-6.774-5.3l3.387-.816c.14 1.521 1.165 2.849 3.431 2.849 1.446 0 2.33-.7 2.33-1.723 0-.837-.68-1.446-1.769-1.664l-2.262-.421c-2.808-.535-4.505-2.4-4.505-4.85 0-3.126 2.75-5.319 5.926-5.319 4.123 0 5.689 2.471 6.034 4.409z" transform="translate(-194.047 -303.922)"/>
                        <path id="패스_1549" data-name="패스 1549" class="cls-2" d="M216.62 323.838v-11.6H220v1.327a4.07 4.07 0 0 1 3.344-1.679 3.6 3.6 0 0 1 3.431 1.822 3.957 3.957 0 0 1 3.585-1.822 4.054 4.054 0 0 1 4.29 4.433v7.52h-3.423v-6.725a1.756 1.756 0 0 0-1.845-1.952 1.89 1.89 0 0 0-1.938 1.985v6.692h-3.5v-6.729a1.758 1.758 0 0 0-1.867-1.952 1.886 1.886 0 0 0-1.916 2v6.681z" transform="translate(-202.006 -306.616)"/>
                        <path id="패스_1550" data-name="패스 1550" class="cls-2" d="M249.427 303.746a2.077 2.077 0 1 1-2.057 2.068 2.08 2.08 0 0 1 2.057-2.068m-1.748 5.617h3.553v11.6h-3.553z" transform="translate(-212.849 -303.746)"/>
                        <path id="사각형_1193" data-name="사각형 1193" class="cls-2" transform="translate(40.606 .324)" d="M0 0h3.553v16.894H0z"/>
                        <path id="패스_1551" data-name="패스 1551" class="cls-2" d="M276.061 320.5a5.219 5.219 0 0 1-5.353 3.682 6.157 6.157 0 0 1-.252-12.3c3.589 0 5.8 2.219 5.8 5.952a7.143 7.143 0 0 1-.069 1.1h-8.065a2.5 2.5 0 0 0 2.632 2.237 2.236 2.236 0 0 0 2.33-1.513zm-3.232-3.852a2.07 2.07 0 0 0-2.323-1.966 2.21 2.21 0 0 0-2.309 1.966z" transform="translate(-218.947 -306.613)"/>
                        <path id="패스_1552" data-name="패스 1552" class="cls-2" d="M287.283 323.687a2.408 2.408 0 0 0 2.485 1.931c1.776 0 2.873-.859 2.873-2.966v-.531a3.631 3.631 0 0 1-3.1 1.3 5.663 5.663 0 0 1 0-11.313 3.48 3.48 0 0 1 3.214 1.439v-1.233h3.388v10.151c0 3.334-1.87 6.228-6.2 6.228-3.341 0-5.466-2.049-5.79-4.131zm5.384-5.916a2.486 2.486 0 1 0-4.969 0 2.411 2.411 0 0 0 2.489 2.575 2.386 2.386 0 0 0 2.481-2.575" transform="translate(-225.818 -306.695)"/>
                        <path id="패스_1553" data-name="패스 1553" class="cls-2" d="M313.94 322.346a3.291 3.291 0 0 1-3.126 1.808c-3.4 0-5.757-2.582-5.757-6.159 0-3.456 2.208-6.117 5.638-6.117a3.341 3.341 0 0 1 3.223 1.683v-1.327h3.43v9.522a20.032 20.032 0 0 0 .094 2.074h-3.412a13.274 13.274 0 0 1-.089-1.376zm-2.665-1.241c1.428 0 2.644-1.125 2.644-3.086 0-2.013-1.187-3.06-2.644-3.06-1.507 0-2.65 1.046-2.65 3.06 0 1.913 1.187 3.086 2.65 3.086" transform="translate(-233.189 -306.613)"/>
                        <path id="패스_1554" data-name="패스 1554" class="cls-2" d="M331.324 310.584h2.255v3.107h-2.255v4.337c0 .959.515 1.211 1.284 1.211a4.4 4.4 0 0 0 .928-.118v2.949a4.248 4.248 0 0 1-1.846.324 3.523 3.523 0 0 1-3.871-3.737v-4.966h-2.043v-3.109h.576a1.7 1.7 0 0 0 1.8-1.892v-1.5h3.174z" transform="translate(-240.494 -304.963)"/>
                        <path id="패스_1555" data-name="패스 1555" class="cls-2" d="M350.484 320.5a5.208 5.208 0 0 1-5.346 3.682 6.157 6.157 0 0 1-.252-12.3c3.589 0 5.8 2.219 5.8 5.952a9.571 9.571 0 0 1-.065 1.1h-8.077a2.5 2.5 0 0 0 2.632 2.237 2.244 2.244 0 0 0 2.338-1.513zm-3.225-3.852a2.079 2.079 0 0 0-2.331-1.966 2.23 2.23 0 0 0-2.316 1.966z" transform="translate(-245.191 -306.613)"/>
                    </g>
                </g>
            </g>
        </g>
    </g>
</svg>
