<svg xmlns="http://www.w3.org/2000/svg" width="256" height="52">
    <g data-name="1">
        <path data-name="사각형 135" style="fill:none;opacity:.2" d="M0 0h256v52H0z"/>
        <g data-name="그룹 134">
            <g data-name="그룹 133">
                <g data-name="그룹 131">
                    <path data-name="패스 966" d="M13.284 20.669a2.5 2.5 0 0 0-2.759-2.079 2.038 2.038 0 0 0-2.264 1.772c0 .8.5 1.383 1.638 1.587l2.223.421c3.155.587 4.791 2.608 4.791 4.967 0 2.592-2.169 5.23-6.12 5.23-4.582 0-6.558-2.966-6.788-5.3l3.393-.816c.139 1.519 1.166 2.846 3.437 2.846 1.448 0 2.336-.7 2.336-1.722 0-.836-.68-1.444-1.776-1.666l-2.263-.419c-2.815-.535-4.519-2.4-4.519-4.849 0-3.124 2.759-5.316 5.94-5.316 4.135 0 5.7 2.468 6.05 4.406z"/>
                    <path data-name="패스 967" d="M18.649 32.22v-11.6h3.389v1.329a4.075 4.075 0 0 1 3.351-1.679 3.612 3.612 0 0 1 3.44 1.823 3.965 3.965 0 0 1 3.591-1.823 4.059 4.059 0 0 1 4.3 4.432v7.517h-3.431v-6.721a1.758 1.758 0 0 0-1.851-1.953 1.89 1.89 0 0 0-1.944 1.982v6.693h-3.5v-6.724a1.764 1.764 0 0 0-1.871-1.957 1.893 1.893 0 0 0-1.924 2v6.678z"/>
                    <path data-name="패스 968" d="M40.663 15a2.078 2.078 0 1 1-2.062 2.068A2.084 2.084 0 0 1 40.663 15m-1.751 5.62h3.559v11.6h-3.559z"/>
                    <path data-name="사각형 93" d="M44.7 15.328h3.561v16.889H44.7z"/>
                    <path data-name="패스 969" d="M61.249 28.884a5.232 5.232 0 0 1-5.37 3.682 6.155 6.155 0 0 1-.25-12.3c3.6 0 5.816 2.217 5.816 5.951a7.246 7.246 0 0 1-.066 1.1h-8.086a2.507 2.507 0 0 0 2.639 2.238 2.243 2.243 0 0 0 2.336-1.513zm-3.241-3.849a2.072 2.072 0 0 0-2.33-1.967 2.211 2.211 0 0 0-2.313 1.967z"/>
                    <path data-name="패스 970" d="M65.609 31.993a2.414 2.414 0 0 0 2.492 1.93c1.782 0 2.881-.856 2.881-2.965v-.531a3.645 3.645 0 0 1-3.112 1.305 5.662 5.662 0 0 1 0-11.312c1.9 0 2.9.826 3.225 1.438v-1.235h3.395v10.151c0 3.334-1.875 6.23-6.215 6.23-3.348 0-5.478-2.051-5.8-4.133zm5.4-5.916a2.493 2.493 0 1 0-4.983 0 2.415 2.415 0 0 0 2.495 2.578 2.391 2.391 0 0 0 2.489-2.578"/>
                    <path data-name="패스 971" d="M84.943 30.73a3.3 3.3 0 0 1-3.132 1.808c-3.408 0-5.773-2.579-5.773-6.157 0-3.455 2.215-6.116 5.653-6.116a3.346 3.346 0 0 1 3.229 1.682v-1.325h3.441v9.52a20.012 20.012 0 0 0 .095 2.073h-3.423a13.244 13.244 0 0 1-.089-1.377zm-2.671-1.239c1.43 0 2.647-1.125 2.647-3.084 0-2.013-1.188-3.06-2.647-3.06-1.511 0-2.659 1.046-2.659 3.06 0 1.91 1.191 3.084 2.659 3.084"/>
                    <path data-name="패스 972" d="M95.046 20.62h2.261v3.11h-2.261v4.334c0 .96.514 1.21 1.286 1.21a4.223 4.223 0 0 0 .928-.117v2.948a4.28 4.28 0 0 1-1.849.325 3.53 3.53 0 0 1-3.881-3.737V23.73h-2.047v-3.113h.576a1.7 1.7 0 0 0 1.8-1.89v-1.5h3.183z"/>
                    <path data-name="패스 973" d="M109.543 28.884a5.218 5.218 0 0 1-5.36 3.682 6.155 6.155 0 0 1-.252-12.3c3.6 0 5.817 2.217 5.817 5.951a9.606 9.606 0 0 1-.064 1.1h-8.1a2.51 2.51 0 0 0 2.642 2.238 2.247 2.247 0 0 0 2.341-1.513zm-3.233-3.849a2.083 2.083 0 0 0-2.335-1.967 2.234 2.234 0 0 0-2.322 1.967z"/>
                </g>
                <g data-name="그룹 132">
                    <path data-name="패스 974" d="M121.94 32.345V17.268h9.189v1.934h-7.1v4.636h6.44v1.957h-6.44v4.615h7.1v1.936z"/>
                    <path data-name="패스 975" d="M135.797 32.346h-2v-10.23h1.962v1.467a3.512 3.512 0 0 1 3.155-1.765c2.452 0 3.668 1.765 3.668 4.041v6.487h-2V26.2c0-1.424-.6-2.574-2.388-2.574-1.577 0-2.387 1.256-2.387 2.807z"/>
                    <path data-name="패스 976" d="M148.139 22.116h2.218v1.807h-2.218v5.317c0 .937.385 1.4 1.429 1.4a4.081 4.081 0 0 0 .789-.085v1.7a4.378 4.378 0 0 1-1.364.191 2.658 2.658 0 0 1-2.857-2.912v-5.615h-1.962v-1.807h.554a1.433 1.433 0 0 0 1.578-1.574v-1.659h1.833z"/>
                    <path data-name="패스 977" d="M161.635 29.432a4.649 4.649 0 0 1-4.605 3.232 5.45 5.45 0 0 1-.256-10.866c3.156 0 4.925 2.168 4.925 5.358a4.463 4.463 0 0 1-.043.637h-7.719a3.042 3.042 0 0 0 3.092 3.105 2.793 2.793 0 0 0 2.879-2.063zm-2.026-3.254a2.581 2.581 0 0 0-2.815-2.615 2.756 2.756 0 0 0-2.793 2.615z"/>
                    <path data-name="패스 978" d="M169.628 24.136a6.279 6.279 0 0 0-.874-.064c-1.684 0-2.815.893-2.815 3.147v5.126h-2V22.116h1.961v1.787a3.214 3.214 0 0 1 3.071-1.958 3.757 3.757 0 0 1 .66.065z"/>
                    <path data-name="패스 979" d="M174.126 22.116h2.217v1.807h-2.217v5.317c0 .937.384 1.4 1.428 1.4a4.071 4.071 0 0 0 .789-.085v1.7a4.365 4.365 0 0 1-1.364.191 2.658 2.658 0 0 1-2.857-2.912v-5.615h-1.962v-1.807h.555a1.433 1.433 0 0 0 1.578-1.574v-1.659h1.833z"/>
                    <path data-name="패스 980" d="m181.162 26.502 2.771-.4c.619-.085.789-.405.789-.766 0-1-.66-1.83-2.217-1.83a2.175 2.175 0 0 0-2.325 2.063l-1.918-.447a3.952 3.952 0 0 1 4.2-3.316c3.07 0 4.264 1.742 4.264 3.742v5.126a9.63 9.63 0 0 0 .128 1.68h-1.961a7.458 7.458 0 0 1-.107-1.382 3.741 3.741 0 0 1-3.3 1.7 3.192 3.192 0 0 1-3.434-3.061c-.004-1.838 1.34-2.859 3.11-3.109zm3.56 1.467v-.468l-3.134.468a1.531 1.531 0 0 0-1.493 1.531 1.553 1.553 0 0 0 1.663 1.488 2.686 2.686 0 0 0 2.964-3.024z"/>
                    <path data-name="패스 981" d="M190.497 16.799a1.436 1.436 0 1 1-1.428 1.447 1.436 1.436 0 0 1 1.428-1.447zm-.98 15.546V22.116h1.983v10.23z"/>
                    <path data-name="패스 982" d="M196.594 32.346h-2v-10.23h1.962v1.467a3.515 3.515 0 0 1 3.156-1.765c2.452 0 3.667 1.765 3.667 4.041v6.487h-2V26.2c0-1.424-.6-2.574-2.388-2.574-1.578 0-2.388 1.256-2.388 2.807z"/>
                    <path data-name="패스 983" d="M206.251 32.346v-10.23h1.918v1.361a3.539 3.539 0 0 1 3.113-1.659 3.2 3.2 0 0 1 3.07 1.936 3.685 3.685 0 0 1 3.432-1.936c1.792 0 3.54 1.212 3.54 3.892v6.635h-1.983v-6.423a2.062 2.062 0 0 0-2.174-2.34 2.389 2.389 0 0 0-2.363 2.575v6.189h-2v-6.423a2.061 2.061 0 0 0-2.175-2.34 2.375 2.375 0 0 0-2.387 2.6v6.167z"/>
                    <path data-name="패스 984" d="M233.13 29.432a4.649 4.649 0 0 1-4.606 3.232 5.45 5.45 0 0 1-.255-10.866c3.156 0 4.925 2.168 4.925 5.358a4.479 4.479 0 0 1-.042.637h-7.719a3.041 3.041 0 0 0 3.097 3.109 2.793 2.793 0 0 0 2.878-2.063zm-2.026-3.254a2.581 2.581 0 0 0-2.815-2.615 2.756 2.756 0 0 0-2.793 2.615z"/>
                    <path data-name="패스 985" d="M237.438 32.346h-2v-10.23h1.962v1.467a3.515 3.515 0 0 1 3.156-1.765c2.452 0 3.666 1.765 3.666 4.041v6.487h-2V26.2c0-1.424-.6-2.574-2.389-2.574-1.578 0-2.388 1.256-2.388 2.807z"/>
                    <path data-name="패스 986" d="M249.781 22.116h2.218v1.807h-2.218v5.317c0 .937.384 1.4 1.429 1.4a4.093 4.093 0 0 0 .789-.085v1.7a4.382 4.382 0 0 1-1.365.191 2.658 2.658 0 0 1-2.857-2.912v-5.615h-1.961v-1.807h.554a1.433 1.433 0 0 0 1.578-1.574v-1.659h1.833z"/>
                </g>
            </g>
            <path data-name="패스 987" d="M113.145 17.309a2.184 2.184 0 1 1-2.164 2.176 2.18 2.18 0 0 1 2.164-2.176m0 3.935a1.757 1.757 0 1 0-1.691-1.759 1.7 1.7 0 0 0 1.691 1.759m-.28-.581h-.438v-2.377h.82a.763.763 0 0 1 .807.746.72.72 0 0 1-.526.694l.54.938h-.522l-.5-.887h-.184zm.315-1.283c.267 0 .417-.126.417-.345s-.15-.359-.417-.359h-.315v.7z"/>
        </g>
    </g>
</svg>
