<svg xmlns="http://www.w3.org/2000/svg" width="256" height="52">
    <g data-name="10">
        <path data-name="사각형 1058" style="fill:none;opacity:.2" d="M0 0h256v52H0z"/>
        <g data-name="그룹 173">
            <g data-name="그룹 172">
                <g data-name="그룹 170">
                    <path data-name="패스 1079" d="M13.238 20.669a2.5 2.5 0 0 0-2.745-2.08 2.031 2.031 0 0 0-2.254 1.772c0 .8.494 1.383 1.631 1.588l2.213.419c3.141.587 4.768 2.608 4.768 4.967 0 2.592-2.158 5.23-6.091 5.23-4.563 0-6.529-2.965-6.758-5.3l3.379-.816a3.067 3.067 0 0 0 3.422 2.847c1.442 0 2.326-.7 2.326-1.724 0-.836-.677-1.443-1.769-1.665l-2.253-.421c-2.8-.535-4.5-2.4-4.5-4.849 0-3.123 2.747-5.316 5.914-5.316 4.117 0 5.679 2.468 6.023 4.407z"/>
                    <path data-name="패스 1080" d="M18.584 32.221v-11.6h3.374v1.33a4.049 4.049 0 0 1 3.336-1.68 3.593 3.593 0 0 1 3.424 1.823 3.942 3.942 0 0 1 3.575-1.823 4.05 4.05 0 0 1 4.283 4.432v7.519H33.16v-6.721a1.754 1.754 0 0 0-1.843-1.953 1.887 1.887 0 0 0-1.936 1.982v6.693h-3.486v-6.725a1.76 1.76 0 0 0-1.863-1.956 1.889 1.889 0 0 0-1.916 2v6.679z"/>
                    <path data-name="패스 1081" d="M40.502 15a2.078 2.078 0 1 1-2.053 2.068A2.079 2.079 0 0 1 40.502 15m-1.743 5.62h3.543v11.6h-3.543z"/>
                    <path data-name="사각형 120" d="M44.521 15.328h3.546v16.889h-3.546z"/>
                    <path data-name="패스 1082" d="M60.998 28.884a5.211 5.211 0 0 1-5.346 3.682 6.156 6.156 0 0 1-.249-12.3c3.58 0 5.79 2.218 5.79 5.951a7.314 7.314 0 0 1-.066 1.1h-8.051a2.5 2.5 0 0 0 2.627 2.237 2.234 2.234 0 0 0 2.326-1.513zm-3.227-3.849a2.067 2.067 0 0 0-2.32-1.967 2.205 2.205 0 0 0-2.3 1.967z"/>
                    <path data-name="패스 1083" d="M65.34 31.992a2.4 2.4 0 0 0 2.48 1.931c1.775 0 2.868-.858 2.868-2.965v-.533a3.618 3.618 0 0 1-3.1 1.305 5.663 5.663 0 0 1 0-11.312 3.471 3.471 0 0 1 3.209 1.438v-1.235h3.38v10.151c0 3.334-1.866 6.23-6.188 6.23-3.333 0-5.454-2.05-5.776-4.133zm5.374-5.915a2.482 2.482 0 1 0-4.961 0 2.41 2.41 0 0 0 2.484 2.577 2.385 2.385 0 0 0 2.478-2.577"/>
                    <path data-name="패스 1084" d="M84.587 30.73a3.284 3.284 0 0 1-3.119 1.81c-3.393 0-5.747-2.58-5.747-6.158 0-3.454 2.2-6.116 5.627-6.116a3.328 3.328 0 0 1 3.215 1.684v-1.327h3.426v9.52a20.116 20.116 0 0 0 .094 2.073h-3.408a13.294 13.294 0 0 1-.088-1.377zm-2.659-1.239c1.424 0 2.635-1.125 2.635-3.083 0-2.013-1.183-3.061-2.635-3.061-1.5 0-2.647 1.047-2.647 3.061 0 1.91 1.185 3.083 2.647 3.083"/>
                    <path data-name="패스 1085" d="M94.646 20.62h2.251v3.11h-2.251v4.334c0 .96.512 1.211 1.281 1.211a4.188 4.188 0 0 0 .924-.118v2.948a4.238 4.238 0 0 1-1.84.325 3.521 3.521 0 0 1-3.864-3.736v-4.965h-2.038v-3.113h.574a1.7 1.7 0 0 0 1.795-1.888v-1.5h3.169z"/>
                    <path data-name="패스 1086" d="M109.078 28.884a5.2 5.2 0 0 1-5.337 3.682 6.156 6.156 0 0 1-.251-12.3c3.581 0 5.792 2.218 5.792 5.951a9.688 9.688 0 0 1-.064 1.1h-8.062a2.5 2.5 0 0 0 2.631 2.237 2.237 2.237 0 0 0 2.331-1.513zm-3.219-3.849a2.077 2.077 0 0 0-2.325-1.967 2.225 2.225 0 0 0-2.311 1.967z"/>
                </g>
                <g data-name="그룹 171">
                    <path data-name="패스 1087" d="M121.42 32.345V17.267h2.123v15.078z"/>
                    <path data-name="패스 1088" d="M128.828 32.345h-2v-10.23h1.953v1.467a3.5 3.5 0 0 1 3.142-1.765c2.44 0 3.651 1.765 3.651 4.041v6.487h-2v-6.146c0-1.424-.6-2.574-2.378-2.574-1.571 0-2.378 1.256-2.378 2.807z"/>
                    <path data-name="패스 1089" d="M143.112 32.349h-2.017l-4.139-10.23h2.25l2.908 7.89 2.929-7.89h2.145z"/>
                    <path data-name="패스 1090" d="M157.672 29.431a4.628 4.628 0 0 1-4.585 3.232 5.452 5.452 0 0 1-.254-10.862c3.141 0 4.9 2.168 4.9 5.358a4.492 4.492 0 0 1-.042.637h-7.684a3.034 3.034 0 0 0 3.077 3.105 2.781 2.781 0 0 0 2.866-2.063zm-2.017-3.254a2.574 2.574 0 0 0-2.8-2.615 2.749 2.749 0 0 0-2.781 2.615z"/>
                    <path data-name="패스 1091" d="M160.811 29.048a2.179 2.179 0 0 0 2.378 1.914c1.125 0 1.74-.638 1.74-1.361 0-.64-.467-1.129-1.316-1.321l-1.74-.382a2.91 2.91 0 0 1-2.548-2.871 3.483 3.483 0 0 1 3.63-3.232 3.623 3.623 0 0 1 3.885 2.743l-1.763.659a1.982 1.982 0 0 0-2.123-1.7 1.541 1.541 0 0 0-1.7 1.362c0 .617.382 1.063 1.168 1.234l1.656.362c1.847.4 2.823 1.53 2.823 3.041 0 1.446-1.21 3.168-3.736 3.168-2.8 0-3.991-1.807-4.161-2.977z"/>
                    <path data-name="패스 1092" d="M171.912 22.115h2.207v1.807h-2.207v5.317c0 .937.382 1.4 1.422 1.4a4.033 4.033 0 0 0 .786-.085v1.7a4.332 4.332 0 0 1-1.358.191 2.652 2.652 0 0 1-2.845-2.912v-5.615h-1.953v-1.807h.553a1.429 1.429 0 0 0 1.57-1.574v-1.659h1.826z"/>
                    <path data-name="패스 1093" d="M176.453 32.345v-10.23h1.911v1.361a3.52 3.52 0 0 1 3.1-1.659 3.19 3.19 0 0 1 3.056 1.936 3.665 3.665 0 0 1 3.417-1.936c1.784 0 3.524 1.212 3.524 3.892v6.635h-1.974v-6.423a2.058 2.058 0 0 0-2.165-2.34 2.385 2.385 0 0 0-2.357 2.574v6.189h-2v-6.423a2.057 2.057 0 0 0-2.165-2.34 2.371 2.371 0 0 0-2.377 2.6v6.167z"/>
                    <path data-name="패스 1094" d="M203.218 29.431a4.628 4.628 0 0 1-4.585 3.232 5.452 5.452 0 0 1-.254-10.866c3.141 0 4.9 2.168 4.9 5.358a4.5 4.5 0 0 1-.042.637h-7.684a3.034 3.034 0 0 0 3.078 3.105 2.782 2.782 0 0 0 2.866-2.063zm-2.017-3.254a2.574 2.574 0 0 0-2.8-2.615 2.748 2.748 0 0 0-2.78 2.615z"/>
                    <path data-name="패스 1095" d="M207.504 32.345h-2v-10.23h1.953v1.467a3.5 3.5 0 0 1 3.141-1.765c2.441 0 3.651 1.765 3.651 4.041v6.487h-1.994v-6.146c0-1.424-.6-2.574-2.378-2.574-1.571 0-2.378 1.256-2.378 2.807z"/>
                    <path data-name="패스 1096" d="M219.792 22.115h2.207v1.807h-2.207v5.317c0 .937.382 1.4 1.422 1.4a4.033 4.033 0 0 0 .786-.085v1.7a4.325 4.325 0 0 1-1.358.191 2.652 2.652 0 0 1-2.843-2.912v-5.615h-1.954v-1.807h.553a1.43 1.43 0 0 0 1.571-1.574v-1.659h1.823z"/>
                </g>
            </g>
            <path data-name="패스 1097" d="M112.664 17.31a2.184 2.184 0 1 1-2.154 2.175 2.174 2.174 0 0 1 2.154-2.175m0 3.934a1.756 1.756 0 1 0-1.684-1.759 1.7 1.7 0 0 0 1.684 1.759m-.279-.581h-.436v-2.377h.816a.761.761 0 0 1 .8.746.719.719 0 0 1-.523.694l.537.938h-.52l-.494-.887h-.184zm.314-1.283c.266 0 .415-.126.415-.345s-.149-.359-.415-.359h-.314v.7z"/>
        </g>
    </g>
</svg>
