<svg xmlns="http://www.w3.org/2000/svg" width="256" height="52">
    <g data-name="11">
        <path data-name="사각형 1060" style="fill:none;opacity:.2" d="M0 0h256v52H0z"/>
        <g data-name="그룹 179">
            <g data-name="그룹 178">
                <g data-name="그룹 176">
                    <path data-name="패스 1098" d="M13.26 20.669a2.5 2.5 0 0 0-2.754-2.079 2.035 2.035 0 0 0-2.26 1.772c0 .8.5 1.384 1.635 1.588l2.218.419c3.148.587 4.781 2.609 4.781 4.968 0 2.591-2.164 5.228-6.107 5.228-4.572 0-6.544-2.965-6.774-5.3l3.387-.816c.139 1.518 1.163 2.847 3.431 2.847 1.444 0 2.33-.7 2.33-1.722 0-.838-.679-1.444-1.773-1.666l-2.258-.419c-2.809-.535-4.51-2.4-4.51-4.85 0-3.123 2.753-5.314 5.928-5.314 4.127 0 5.692 2.468 6.037 4.406z"/>
                    <path data-name="패스 1099" d="M18.618 32.219v-11.6H22v1.329a4.065 4.065 0 0 1 3.344-1.68 3.6 3.6 0 0 1 3.432 1.824 3.952 3.952 0 0 1 3.583-1.824 4.056 4.056 0 0 1 4.294 4.432v7.518h-3.425v-6.722a1.755 1.755 0 0 0-1.847-1.952 1.888 1.888 0 0 0-1.94 1.981v6.693h-3.494v-6.724a1.762 1.762 0 0 0-1.867-1.956 1.89 1.89 0 0 0-1.919 2v6.678z"/>
                    <path data-name="패스 1100" d="M40.585 15a2.078 2.078 0 1 1-2.058 2.069A2.082 2.082 0 0 1 40.585 15m-1.747 5.62h3.551v11.6h-3.551z"/>
                    <path data-name="사각형 122" d="M44.616 15.328h3.554v16.888h-3.554z"/>
                    <path data-name="패스 1101" d="M61.131 28.883a5.222 5.222 0 0 1-5.358 3.681 6.155 6.155 0 0 1-.25-12.3c3.588 0 5.8 2.217 5.8 5.95a7.265 7.265 0 0 1-.066 1.1h-8.07a2.5 2.5 0 0 0 2.633 2.237 2.238 2.238 0 0 0 2.331-1.513zm-3.234-3.847a2.07 2.07 0 0 0-2.326-1.967 2.208 2.208 0 0 0-2.308 1.967z"/>
                    <path data-name="패스 1102" d="M65.483 31.993a2.407 2.407 0 0 0 2.486 1.93c1.779 0 2.875-.858 2.875-2.965v-.532a3.631 3.631 0 0 1-3.1 1.306 5.662 5.662 0 0 1 0-11.312c1.893 0 2.895.825 3.217 1.437v-1.233h3.388v10.15c0 3.333-1.871 6.23-6.2 6.23-3.341 0-5.467-2.051-5.79-4.133zm5.387-5.916a2.488 2.488 0 1 0-4.973 0 2.412 2.412 0 0 0 2.489 2.576 2.387 2.387 0 0 0 2.484-2.576"/>
                    <path data-name="패스 1103" d="M84.775 30.729a3.291 3.291 0 0 1-3.126 1.809c-3.4 0-5.76-2.58-5.76-6.158 0-3.454 2.21-6.114 5.64-6.114a3.336 3.336 0 0 1 3.223 1.682v-1.326h3.434v9.521a20.1 20.1 0 0 0 .094 2.073h-3.416a13.663 13.663 0 0 1-.088-1.378zM82.11 29.49c1.427 0 2.641-1.124 2.641-3.083 0-2.013-1.186-3.061-2.641-3.061-1.508 0-2.653 1.047-2.653 3.061 0 1.91 1.188 3.083 2.653 3.083"/>
                    <path data-name="패스 1104" d="M94.858 20.621h2.256v3.109h-2.256v4.334c0 .961.513 1.211 1.284 1.211a4.126 4.126 0 0 0 .926-.118v2.949a4.266 4.266 0 0 1-1.845.324 3.526 3.526 0 0 1-3.873-3.736V23.73h-2.043v-3.112h.575a1.7 1.7 0 0 0 1.8-1.89v-1.5h3.177z"/>
                    <path data-name="패스 1105" d="M109.324 28.883a5.208 5.208 0 0 1-5.349 3.681 6.155 6.155 0 0 1-.251-12.3c3.589 0 5.805 2.217 5.805 5.95a9.632 9.632 0 0 1-.064 1.1h-8.081a2.507 2.507 0 0 0 2.637 2.237 2.242 2.242 0 0 0 2.336-1.513zm-3.225-3.847a2.081 2.081 0 0 0-2.331-1.967 2.228 2.228 0 0 0-2.316 1.967z"/>
                </g>
                <g data-name="그룹 177">
                    <path data-name="패스 1106" d="M121.695 32.345V17.268h9.169v1.934h-7.084v4.849h6.425v1.957h-6.425v6.337z"/>
                    <path data-name="패스 1107" d="M142.503 27.218a5.237 5.237 0 1 1-5.233-5.421 5.165 5.165 0 0 1 5.233 5.421zm-2.043 0c0-2.36-1.49-3.637-3.191-3.637s-3.192 1.277-3.192 3.637c0 2.383 1.49 3.658 3.192 3.658s3.194-1.275 3.194-3.658z"/>
                    <path data-name="패스 1108" d="M148.459 32.663a3.783 3.783 0 0 1-3.831-4.1v-6.444h2v6.146c0 1.4.638 2.637 2.32 2.637a2.313 2.313 0 0 0 2.426-2.616V22.12h2v8.33a17.2 17.2 0 0 0 .107 1.893h-1.915a9.086 9.086 0 0 1-.085-1.233 3.339 3.339 0 0 1-3.022 1.553z"/>
                    <path data-name="패스 1109" d="M158.455 32.345h-2V22.116h1.957v1.467a3.508 3.508 0 0 1 3.149-1.765c2.448 0 3.66 1.765 3.66 4.041v6.486h-2v-6.146c0-1.424-.6-2.574-2.383-2.574-1.575 0-2.383 1.256-2.383 2.807z"/>
                    <path data-name="패스 1110" d="M175.261 30.791a3.427 3.427 0 0 1-3.17 1.828c-3 0-4.852-2.381-4.852-5.423 0-2.892 1.958-5.358 4.852-5.358a3.144 3.144 0 0 1 3.127 1.722v-6.615h1.982v13.5a16.268 16.268 0 0 0 .106 1.893h-1.937a8.594 8.594 0 0 1-.106-1.382zm-2.979.064c1.831 0 2.959-1.6 2.959-3.7s-1.108-3.551-2.936-3.551-3.022 1.488-3.022 3.593 1.085 3.658 3 3.658z"/>
                    <path data-name="패스 1111" d="m182.75 26.501 2.766-.4c.616-.085.787-.405.787-.766 0-1-.66-1.829-2.214-1.829a2.17 2.17 0 0 0-2.319 2.063l-1.915-.446a3.946 3.946 0 0 1 4.191-3.316c3.063 0 4.255 1.742 4.255 3.741v5.126a9.644 9.644 0 0 0 .127 1.68h-1.957a7.467 7.467 0 0 1-.107-1.382 3.732 3.732 0 0 1-3.3 1.7 3.187 3.187 0 0 1-3.425-3.061c.004-1.839 1.342-2.86 3.111-3.11zm3.554 1.467V27.5l-3.128.468a1.529 1.529 0 0 0-1.489 1.531 1.55 1.55 0 0 0 1.658 1.488 2.684 2.684 0 0 0 2.959-3.024z"/>
                    <path data-name="패스 1112" d="M193.771 22.116h2.212v1.807h-2.212v5.317c0 .937.383 1.4 1.425 1.4a4.075 4.075 0 0 0 .787-.085v1.7a4.363 4.363 0 0 1-1.363.191 2.655 2.655 0 0 1-2.851-2.912v-5.615h-1.956v-1.807h.553a1.432 1.432 0 0 0 1.575-1.574v-1.659h1.831z"/>
                    <path data-name="패스 1113" d="M199.3 16.799a1.435 1.435 0 1 1-1.425 1.447 1.435 1.435 0 0 1 1.425-1.447zm-.978 15.545V22.115h1.979v10.231z"/>
                    <path data-name="패스 1114" d="M213.002 27.218a5.238 5.238 0 1 1-5.234-5.421 5.166 5.166 0 0 1 5.234 5.421zm-2.043 0c0-2.36-1.49-3.637-3.191-3.637s-3.192 1.277-3.192 3.637c0 2.383 1.489 3.658 3.192 3.658s3.192-1.275 3.192-3.658z"/>
                    <path data-name="패스 1115" d="M217.234 32.345h-2V22.116h1.957v1.467a3.506 3.506 0 0 1 3.15-1.765c2.447 0 3.659 1.765 3.659 4.041v6.486h-2v-6.146c0-1.424-.6-2.574-2.383-2.574-1.575 0-2.383 1.256-2.383 2.807z"/>
                </g>
            </g>
            <path data-name="패스 1116" d="M112.919 17.31a2.184 2.184 0 1 1-2.158 2.176 2.177 2.177 0 0 1 2.158-2.176m0 3.935a1.757 1.757 0 1 0-1.687-1.759 1.7 1.7 0 0 0 1.687 1.759m-.279-.581h-.437v-2.377h.82a.761.761 0 0 1 .8.745.719.719 0 0 1-.525.7l.539.938h-.521l-.5-.888h-.179zm.316-1.283c.265 0 .415-.127.415-.345s-.15-.359-.415-.359l-.319-.882v.7z"/>
        </g>
    </g>
</svg>
