<svg xmlns="http://www.w3.org/2000/svg" width="52" height="52">
    <g data-name="12">
        <path data-name="사각형 1061" style="fill:none;opacity:.2" d="M0 0h52v52H0z"/>
        <g data-name="그룹 253">
            <path data-name="패스 1517" d="M482.281 176.582a14.905 14.905 0 0 0-5.7-9.979 15.04 15.04 0 0 0-23.4 6.878v.006l-.008.023a.128.128 0 0 0 0 .013 2.4 2.4 0 0 0 .143 1.887c.678 1.43 2.683 2.9 5.142 4.208a8.967 8.967 0 0 0 15.405 5.067c.6.086 1.173.152 1.721.2s1.062.067 1.537.067c.29 0 .564-.009.826-.025a12.748 12.748 0 0 1-.779 1.126 12.431 12.431 0 0 1-17.4 2.189 12.264 12.264 0 0 1-4.743-8.619 1.313 1.313 0 0 0-2.614.247 15.039 15.039 0 0 0 26.835 7.79 14.893 14.893 0 0 0 3.039-11.077m-26.5-2.125a9.684 9.684 0 0 1 3.65-.109 8.946 8.946 0 0 0-.845 2.337 9.3 9.3 0 0 1-2.8-2.228m17.544 6.2a6.4 6.4 0 0 1-.566 1.182 47.583 47.583 0 0 1-6.179-1.634 48.494 48.494 0 0 1-5.541-2.218 6.372 6.372 0 0 1 .347-1.583 6.337 6.337 0 0 1 11.938 4.253m-3.254 3.592a6.342 6.342 0 0 1-8.442-3.007l-.063-.141a54.027 54.027 0 0 0 8.91 2.936 6.77 6.77 0 0 1-.405.212m5.442-2.008c.1-.228.2-.462.285-.7a9.08 9.08 0 0 0 .418-1.648 7.562 7.562 0 0 1 2.774 2.225 8.951 8.951 0 0 1-3.478.125m.658-5.346a8.98 8.98 0 0 0-14.878-4.968 24.507 24.507 0 0 0-4.285-.29c.176-.265.36-.523.556-.776a12.43 12.43 0 0 1 17.4-2.189 12.3 12.3 0 0 1 4.7 8.235 12.43 12.43 0 0 1 .079 2.213 19.1 19.1 0 0 0-3.583-2.225" transform="translate(-441.401 -152.457)" style="fill:#f15f22"/>
            <path data-name="패스 1518" d="M452.909 192.812a1.312 1.312 0 1 1 1.843-.232 1.31 1.31 0 0 1-1.843.232" transform="translate(-441.401 -164.488)" style="fill:#582e91"/>
        </g>
    </g>
</svg>
