<svg xmlns="http://www.w3.org/2000/svg" width="256" height="52">
    <g data-name="3">
        <path data-name="사각형 1044" style="fill:none;opacity:.2" d="M0 0h256v52H0z"/>
        <g data-name="그룹 144">
            <g data-name="그룹 143">
                <g data-name="그룹 141">
                    <path data-name="패스 1000" d="M13.268 20.669a2.5 2.5 0 0 0-2.756-2.079 2.036 2.036 0 0 0-2.262 1.772c0 .8.5 1.383 1.636 1.588l2.22.419c3.151.587 4.784 2.61 4.784 4.967 0 2.592-2.166 5.23-6.111 5.23-4.578 0-6.55-2.965-6.78-5.3l3.389-.816c.138 1.519 1.163 2.848 3.433 2.848 1.446 0 2.334-.7 2.334-1.724 0-.836-.68-1.443-1.774-1.665l-2.262-.421c-2.81-.535-4.513-2.4-4.513-4.849 0-3.123 2.756-5.314 5.933-5.314 4.13 0 5.7 2.467 6.043 4.406z"/>
                    <path data-name="패스 1001" d="M18.632 32.221v-11.6h3.385v1.329a4.07 4.07 0 0 1 3.347-1.68 3.608 3.608 0 0 1 3.435 1.827 3.957 3.957 0 0 1 3.587-1.824 4.058 4.058 0 0 1 4.3 4.432v7.519h-3.427v-6.727a1.757 1.757 0 0 0-1.849-1.953 1.889 1.889 0 0 0-1.942 1.982v6.693h-3.5v-6.722a1.762 1.762 0 0 0-1.869-1.956 1.891 1.891 0 0 0-1.922 2v6.679z"/>
                    <path data-name="패스 1002" d="M40.621 15a2.078 2.078 0 1 1-2.06 2.069A2.083 2.083 0 0 1 40.621 15m-1.748 5.621h3.553v11.6h-3.553z"/>
                    <path data-name="사각형 100" d="M44.653 15.328h3.557v16.889h-3.557z"/>
                    <path data-name="패스 1003" d="M61.183 28.884a5.227 5.227 0 0 1-5.363 3.682 6.155 6.155 0 0 1-.25-12.3c3.591 0 5.809 2.217 5.809 5.951a7.258 7.258 0 0 1-.066 1.1h-8.079a2.5 2.5 0 0 0 2.636 2.237 2.239 2.239 0 0 0 2.332-1.513zm-3.237-3.849a2.071 2.071 0 0 0-2.328-1.967 2.21 2.21 0 0 0-2.31 1.967z"/>
                    <path data-name="패스 1004" d="M65.538 31.991a2.412 2.412 0 0 0 2.489 1.93c1.779 0 2.878-.858 2.878-2.965v-.537a3.636 3.636 0 0 1-3.109 1.307 5.663 5.663 0 0 1 0-11.313c1.9 0 2.9.826 3.221 1.438v-1.232h3.389V30.77c0 3.333-1.872 6.229-6.207 6.229-3.344 0-5.473-2.05-5.8-4.133zm5.393-5.917a2.49 2.49 0 1 0-4.977 0 2.49 2.49 0 1 0 4.977 0"/>
                    <path data-name="패스 1005" d="M84.847 30.73a3.293 3.293 0 0 1-3.128 1.81c-3.4 0-5.767-2.58-5.767-6.158 0-3.454 2.212-6.114 5.646-6.114a3.34 3.34 0 0 1 3.226 1.682v-1.327h3.437v9.52a20.048 20.048 0 0 0 .094 2.073h-3.419a13.209 13.209 0 0 1-.09-1.377zm-2.666-1.239c1.429 0 2.644-1.124 2.644-3.083 0-2.013-1.187-3.061-2.644-3.061-1.51 0-2.656 1.047-2.656 3.061 0 1.91 1.189 3.083 2.656 3.083"/>
                    <path data-name="패스 1006" d="M94.941 20.621h2.258v3.109h-2.258v4.334c0 .961.513 1.211 1.285 1.211a4.217 4.217 0 0 0 .927-.118v2.948a4.269 4.269 0 0 1-1.846.325 3.527 3.527 0 0 1-3.877-3.736v-4.965h-2.045v-3.111h.576a1.7 1.7 0 0 0 1.8-1.89v-1.5h3.18z"/>
                    <path data-name="패스 1007" d="M109.42 28.884a5.212 5.212 0 0 1-5.354 3.682 6.155 6.155 0 0 1-.251-12.3c3.592 0 5.809 2.217 5.809 5.951a9.739 9.739 0 0 1-.063 1.1h-8.089a2.507 2.507 0 0 0 2.639 2.237 2.245 2.245 0 0 0 2.338-1.513zm-3.229-3.849a2.082 2.082 0 0 0-2.332-1.967 2.232 2.232 0 0 0-2.32 1.967z"/>
                </g>
                <g data-name="그룹 142">
                    <path data-name="패스 1008" d="M136.051 32.343V20.606l-5.155 11.737h-1.916l-5.111-11.739v11.739h-2.066V17.267h2.833l5.324 12.27 5.366-12.27h2.791v15.076z"/>
                    <path data-name="패스 1009" d="M150.337 29.428a4.643 4.643 0 0 1-4.6 3.233 5.452 5.452 0 0 1-.256-10.867c3.152 0 4.92 2.169 4.92 5.359a4.511 4.511 0 0 1-.042.637h-7.71a3.04 3.04 0 0 0 3.089 3.106 2.789 2.789 0 0 0 2.874-2.063zm-2.023-3.253a2.58 2.58 0 0 0-2.811-2.617 2.754 2.754 0 0 0-2.79 2.617z"/>
                    <path data-name="패스 1010" d="M153.828 32.447a2.722 2.722 0 0 0 2.789 2.511c2.151 0 3.132-1.107 3.132-3.319v-1.467a3.418 3.418 0 0 1-3.132 1.68 4.973 4.973 0 0 1 0-9.931 3.237 3.237 0 0 1 3.152 1.615v-1.424h1.981v9.465c0 2.594-1.278 5.124-5.133 5.124a4.483 4.483 0 0 1-4.727-3.805zm6.005-5.55c0-1.978-1.193-3.275-2.918-3.275a2.954 2.954 0 0 0-2.96 3.275c0 2 1.15 3.275 2.96 3.275 1.726.003 2.918-1.294 2.918-3.272z"/>
                    <path data-name="패스 1011" d="m167.093 26.496 2.769-.4c.617-.085.788-.4.788-.766 0-1-.661-1.828-2.216-1.828a2.171 2.171 0 0 0-2.321 2.062l-1.917-.447a3.949 3.949 0 0 1 4.2-3.316c3.066 0 4.259 1.742 4.259 3.743v5.125a9.644 9.644 0 0 0 .127 1.68h-1.958a7.464 7.464 0 0 1-.107-1.382 3.735 3.735 0 0 1-3.3 1.7 3.19 3.19 0 0 1-3.43-3.062c-.004-1.833 1.339-2.853 3.106-3.109zm3.557 1.467v-.466l-3.131.466a1.531 1.531 0 0 0-1.49 1.532 1.552 1.552 0 0 0 1.66 1.489 2.685 2.685 0 0 0 2.961-3.021z"/>
                    <path data-name="패스 1012" d="M175.44 36.386v-14.27h1.938v1.6a3.779 3.779 0 0 1 3.428-1.828c3.067 0 4.706 2.36 4.706 5.337 0 3.042-1.767 5.4-4.771 5.4a3.81 3.81 0 0 1-3.321-1.658v5.423zm5-12.739c-1.831 0-3.046 1.532-3.046 3.572 0 2.105 1.215 3.617 3.046 3.617 1.853 0 3.024-1.512 3.024-3.617.004-2.041-1.146-3.572-3.019-3.572z"/>
                    <path data-name="패스 1013" d="M197.373 27.219a5.242 5.242 0 1 1-5.238-5.422 5.168 5.168 0 0 1 5.238 5.422zm-2.045 0c0-2.36-1.491-3.637-3.194-3.637s-3.195 1.277-3.195 3.637c0 2.383 1.49 3.659 3.195 3.659s3.196-1.276 3.196-3.659z"/>
                    <path data-name="패스 1014" d="M205.293 24.135a6.266 6.266 0 0 0-.873-.062c-1.682 0-2.811.892-2.811 3.146v5.126h-2v-10.23h1.959v1.787a3.208 3.208 0 0 1 3.066-1.957 3.644 3.644 0 0 1 .661.065z"/>
                    <path data-name="패스 1015" d="M209.786 22.115H212v1.808h-2.214v5.316c0 .937.382 1.4 1.426 1.4a4.075 4.075 0 0 0 .788-.086v1.7a4.406 4.406 0 0 1-1.364.191 2.657 2.657 0 0 1-2.854-2.913v-5.614h-1.958v-1.808h.553a1.432 1.432 0 0 0 1.576-1.574v-1.648h1.832z"/>
                </g>
            </g>
            <path data-name="패스 1016" d="M113.017 17.31a2.184 2.184 0 1 1-2.16 2.176 2.178 2.178 0 0 1 2.16-2.176m0 3.935a1.757 1.757 0 1 0-1.687-1.759 1.7 1.7 0 0 0 1.687 1.759m-.278-.582h-.439v-2.376h.821a.76.76 0 0 1 .8.745.72.72 0 0 1-.524.7l.539.937h-.521l-.5-.887h-.172zm.316-1.282c.265 0 .415-.127.415-.345s-.15-.361-.415-.361l-.312-.881v.706z"/>
        </g>
    </g>
</svg>
