<svg xmlns="http://www.w3.org/2000/svg" width="256" height="52">
    <g data-name="5">
        <path data-name="사각형 1048" style="fill:none;opacity:.2" d="M0 0h256v52H0z"/>
        <g data-name="그룹 154">
            <g data-name="그룹 153">
                <g data-name="그룹 151">
                    <path data-name="패스 1033" d="M13.264 20.669a2.5 2.5 0 0 0-2.755-2.079 2.035 2.035 0 0 0-2.261 1.772c0 .8.5 1.383 1.636 1.587l2.219.421c3.15.587 4.782 2.608 4.782 4.967 0 2.592-2.164 5.228-6.109 5.228-4.576 0-6.547-2.965-6.777-5.294l3.388-.818c.138 1.52 1.164 2.847 3.432 2.847 1.446 0 2.333-.7 2.333-1.722 0-.836-.679-1.444-1.774-1.666l-2.259-.419c-2.81-.535-4.512-2.4-4.512-4.849 0-3.124 2.755-5.316 5.93-5.316 4.129 0 5.695 2.468 6.04 4.406z"/>
                    <path data-name="패스 1034" d="M18.625 32.22v-11.6h3.383v1.329a4.067 4.067 0 0 1 3.346-1.68 3.606 3.606 0 0 1 3.434 1.824 3.955 3.955 0 0 1 3.585-1.824 4.057 4.057 0 0 1 4.295 4.433v7.518h-3.426v-6.722a1.756 1.756 0 0 0-1.848-1.952 1.888 1.888 0 0 0-1.941 1.982v6.693h-3.5v-6.725a1.763 1.763 0 0 0-1.868-1.956 1.892 1.892 0 0 0-1.921 2v6.678z"/>
                    <path data-name="패스 1035" d="M40.604 15a2.078 2.078 0 1 1-2.059 2.068A2.082 2.082 0 0 1 40.604 15m-1.748 5.62h3.553v11.6h-3.553z"/>
                    <path data-name="사각형 106" d="M44.635 15.327h3.556v16.889h-3.556z"/>
                    <path data-name="패스 1036" d="M61.158 28.883a5.223 5.223 0 0 1-5.361 3.682 6.155 6.155 0 0 1-.25-12.3c3.59 0 5.807 2.217 5.807 5.951a7.26 7.26 0 0 1-.066 1.1h-8.073a2.5 2.5 0 0 0 2.634 2.238 2.241 2.241 0 0 0 2.333-1.514zm-3.236-3.848a2.07 2.07 0 0 0-2.329-1.965 2.208 2.208 0 0 0-2.309 1.967z"/>
                    <path data-name="패스 1037" d="M65.512 31.993A2.41 2.41 0 0 0 68 33.923c1.779 0 2.876-.857 2.876-2.965v-.531a3.637 3.637 0 0 1-3.107 1.305 5.663 5.663 0 0 1 0-11.312c1.9 0 2.9.826 3.219 1.438v-1.235h3.388v10.151c0 3.334-1.87 6.23-6.2 6.23-3.342 0-5.469-2.051-5.793-4.133zm5.39-5.916a2.489 2.489 0 1 0-4.975 0 2.489 2.489 0 1 0 4.975 0"/>
                    <path data-name="패스 1038" d="M84.813 30.73a3.293 3.293 0 0 1-3.127 1.808c-3.4 0-5.764-2.579-5.764-6.158 0-3.454 2.211-6.114 5.644-6.114a3.338 3.338 0 0 1 3.224 1.682v-1.325h3.435v9.52a20.059 20.059 0 0 0 .094 2.073h-3.418a13.267 13.267 0 0 1-.088-1.377zm-2.666-1.24c1.428 0 2.643-1.124 2.643-3.083 0-2.013-1.186-3.06-2.643-3.06-1.508 0-2.655 1.046-2.655 3.06 0 1.91 1.189 3.083 2.655 3.083"/>
                    <path data-name="패스 1039" d="M94.9 20.62h2.257v3.109H94.9v4.335c0 .96.513 1.21 1.284 1.21a4.136 4.136 0 0 0 .927-.118v2.949a4.261 4.261 0 0 1-1.846.325 3.527 3.527 0 0 1-3.875-3.737v-4.965h-2.044v-3.113h.576a1.7 1.7 0 0 0 1.8-1.89V17.23H94.9z"/>
                    <path data-name="패스 1040" d="M109.373 28.883a5.208 5.208 0 0 1-5.351 3.682 6.155 6.155 0 0 1-.251-12.3c3.591 0 5.808 2.217 5.808 5.951a9.6 9.6 0 0 1-.064 1.1h-8.085a2.507 2.507 0 0 0 2.638 2.238 2.244 2.244 0 0 0 2.337-1.514zm-3.228-3.848a2.08 2.08 0 0 0-2.331-1.967 2.231 2.231 0 0 0-2.318 1.967z"/>
                </g>
                <g data-name="그룹 152">
                    <path data-name="패스 1041" d="M138.738 17.268h2.15l-4.3 15.077h-2.15l-3.943-12.228-3.9 12.229h-2.086l-4.363-15.077h2.149l3.321 11.8 3.79-11.8h2.192l3.874 11.93z"/>
                    <path data-name="패스 1042" d="M151.507 29.432a4.641 4.641 0 0 1-4.6 3.232 5.451 5.451 0 0 1-.256-10.866c3.151 0 4.918 2.168 4.918 5.358a4.47 4.47 0 0 1-.042.637h-7.706a3.04 3.04 0 0 0 3.087 3.105 2.789 2.789 0 0 0 2.874-2.063zm-2.022-3.254a2.578 2.578 0 0 0-2.81-2.615 2.751 2.751 0 0 0-2.788 2.615z"/>
                    <path data-name="패스 1043" d="M154.655 29.049a2.182 2.182 0 0 0 2.384 1.914c1.127 0 1.744-.639 1.744-1.361 0-.64-.467-1.129-1.32-1.321l-1.745-.382a2.911 2.911 0 0 1-2.554-2.871 3.488 3.488 0 0 1 3.64-3.232 3.628 3.628 0 0 1 3.9 2.743l-1.766.659a1.985 1.985 0 0 0-2.129-1.7 1.544 1.544 0 0 0-1.7 1.362c0 .617.383 1.063 1.171 1.233l1.659.362c1.853.4 2.831 1.53 2.831 3.041 0 1.446-1.214 3.168-3.745 3.168-2.81 0-4-1.807-4.173-2.977z"/>
                    <path data-name="패스 1044" d="M165.787 22.116H168v1.807h-2.213v5.317c0 .937.383 1.4 1.427 1.4a4.054 4.054 0 0 0 .787-.085v1.7a4.349 4.349 0 0 1-1.362.191 2.655 2.655 0 0 1-2.851-2.912v-5.615h-1.958v-1.807h.553a1.432 1.432 0 0 0 1.576-1.574v-1.659h1.83z"/>
                </g>
            </g>
            <path data-name="패스 1045" d="M112.974 17.309a2.184 2.184 0 1 1-2.159 2.176 2.178 2.178 0 0 1 2.159-2.176m0 3.935a1.757 1.757 0 1 0-1.689-1.759 1.7 1.7 0 0 0 1.689 1.759m-.28-.581h-.437v-2.377h.818a.762.762 0 0 1 .805.745.72.72 0 0 1-.525.7l.539.938h-.52l-.5-.887h-.184zm.315-1.283c.267 0 .416-.126.416-.345s-.15-.359-.416-.359h-.315v.7z"/>
        </g>
    </g>
</svg>
