<svg xmlns="http://www.w3.org/2000/svg" width="256" height="52">
    <defs>
        <style>
            .cls-2{fill:#1a1818}
        </style>
    </defs>
    <g id="_6" data-name="6" transform="translate(-1512 -611)">
        <path id="사각형_1050" data-name="사각형 1050" transform="translate(1512 611)" style="fill:none;opacity:.2" d="M0 0h256v52H0z"/>
        <g id="그룹_159" data-name="그룹 159" transform="translate(1204.784 209.624)">
            <g id="그룹_157" data-name="그룹 157" transform="translate(428.727 418.327)">
                <path id="패스_1046" data-name="패스 1046" class="cls-2" d="M415.974 418.3c2.867 0 4.545 1.7 4.545 4.082a3.35 3.35 0 0 1-2.253 3.254 3.626 3.626 0 0 1 2.72 3.635c0 2.381-1.891 4.1-4.653 4.1h-5.266V418.3zm-.235 6.591a2.392 2.392 0 0 0 2.677-2.4c0-1.425-1.042-2.36-2.762-2.36h-2.507v4.763zm.3 6.655c1.681 0 2.827-.934 2.827-2.4 0-1.445-.913-2.464-2.74-2.464h-2.975v4.868z" transform="translate(-411.067 -417.984)"/>
                <path id="패스_1047" data-name="패스 1047" class="cls-2" d="m424.137 426.846 2.761-.4c.617-.087.786-.405.786-.767 0-1-.659-1.828-2.209-1.828a2.169 2.169 0 0 0-2.315 2.063l-1.911-.447a3.939 3.939 0 0 1 4.184-3.316c3.06 0 4.247 1.742 4.247 3.74v5.126a9.47 9.47 0 0 0 .128 1.679h-1.955a7.636 7.636 0 0 1-.1-1.381 3.726 3.726 0 0 1-3.293 1.7 3.184 3.184 0 0 1-3.42-3.062c-.004-1.831 1.335-2.853 3.097-3.107zm3.547 1.467v-.468l-3.121.468a1.529 1.529 0 0 0-1.488 1.533 1.549 1.549 0 0 0 1.657 1.487 2.68 2.68 0 0 0 2.952-3.02z" transform="translate(-409.304 -417.299)"/>
                <path id="패스_1048" data-name="패스 1048" class="cls-2" d="M436.693 424.464a6.057 6.057 0 0 0-.871-.064c-1.678 0-2.8.893-2.8 3.145v5.124h-2v-10.225h1.955v1.787a3.2 3.2 0 0 1 3.059-1.957 3.648 3.648 0 0 1 .658.064z" transform="translate(-407.538 -417.277)"/>
                <path id="패스_1049" data-name="패스 1049" class="cls-2" d="M438.877 427.568c0 2.338 1.464 3.594 3.122 3.594a2.776 2.776 0 0 0 2.846-2.105l1.763.766a4.691 4.691 0 0 1-4.608 3.189 5.44 5.44 0 0 1-.021-10.864 4.443 4.443 0 0 1 4.545 3.253l-1.805.766a2.681 2.681 0 0 0-2.74-2.17c-1.614.003-3.102 1.19-3.102 3.571z" transform="translate(-406.509 -417.299)"/>
                <path id="패스_1050" data-name="패스 1050" class="cls-2" d="M456.065 429.781a4.627 4.627 0 0 1-4.589 3.231 5.451 5.451 0 0 1-.254-10.864c3.145 0 4.908 2.168 4.908 5.358a4.312 4.312 0 0 1-.044.637H448.4a3.035 3.035 0 0 0 3.079 3.1 2.784 2.784 0 0 0 2.868-2.062zm-2.018-3.253a2.574 2.574 0 0 0-2.8-2.616 2.752 2.752 0 0 0-2.783 2.616z" transform="translate(-404.829 -417.299)"/>
                <path id="패스_1051" data-name="패스 1051" class="cls-2" d="M456.828 433.425v-15.393h2v15.393z" transform="translate(-402.974 -418.032)"/>
                <path id="패스_1052" data-name="패스 1052" class="cls-2" d="M471.145 427.568a5.229 5.229 0 1 1-5.225-5.42 5.16 5.16 0 0 1 5.225 5.42zm-2.04 0c0-2.36-1.486-3.635-3.186-3.635s-3.187 1.276-3.187 3.635c0 2.382 1.487 3.659 3.187 3.659s3.186-1.277 3.186-3.659z" transform="translate(-402.29 -417.299)"/>
                <path id="패스_1053" data-name="패스 1053" class="cls-2" d="M473.743 432.69h-2v-10.227h1.957v1.467a3.5 3.5 0 0 1 3.145-1.765c2.442 0 3.653 1.765 3.653 4.04v6.485h-2v-6.145c0-1.424-.594-2.573-2.38-2.573-1.572 0-2.378 1.256-2.378 2.807z" transform="translate(-400.335 -417.296)"/>
                <path id="패스_1054" data-name="패스 1054" class="cls-2" d="m484.454 426.846 2.762-.4c.616-.087.785-.405.785-.767 0-1-.657-1.828-2.208-1.828a2.17 2.17 0 0 0-2.316 2.063l-1.911-.447a3.941 3.941 0 0 1 4.185-3.316c3.059 0 4.248 1.742 4.248 3.74v5.126a9.808 9.808 0 0 0 .126 1.679h-1.952a7.338 7.338 0 0 1-.107-1.381 3.722 3.722 0 0 1-3.292 1.7 3.185 3.185 0 0 1-3.421-3.062c0-1.831 1.339-2.853 3.101-3.107zm3.546 1.467v-.468l-3.121.468a1.53 1.53 0 0 0-1.488 1.533 1.55 1.55 0 0 0 1.657 1.487 2.679 2.679 0 0 0 2.952-3.02z" transform="translate(-398.636 -417.299)"/>
            </g>
            <g id="그룹_158" data-name="그룹 158" transform="translate(311.216 416.376)">
                <path id="패스_1055" data-name="패스 1055" class="cls-2" d="M320.461 422a2.5 2.5 0 0 0-2.749-2.08 2.033 2.033 0 0 0-2.256 1.772c0 .8.494 1.384 1.632 1.588l2.215.419c3.143.587 4.773 2.609 4.773 4.968 0 2.591-2.161 5.228-6.1 5.228-4.565 0-6.534-2.965-6.763-5.294l3.381-.818a3.069 3.069 0 0 0 3.425 2.847c1.443 0 2.328-.7 2.328-1.722 0-.838-.678-1.444-1.77-1.666l-2.255-.419c-2.8-.535-4.5-2.4-4.5-4.849 0-3.124 2.749-5.315 5.918-5.315 4.12 0 5.683 2.467 6.028 4.406z" transform="translate(-311.216 -416.326)"/>
                <path id="패스_1056" data-name="패스 1056" class="cls-2" d="M323.618 432.8v-11.6h3.376v1.329a4.056 4.056 0 0 1 3.339-1.68 3.6 3.6 0 0 1 3.427 1.824 3.944 3.944 0 0 1 3.578-1.824 4.052 4.052 0 0 1 4.286 4.432v7.519h-3.419v-6.722a1.755 1.755 0 0 0-1.844-1.953 1.888 1.888 0 0 0-1.937 1.983v6.692h-3.488v-6.724a1.76 1.76 0 0 0-1.864-1.956 1.889 1.889 0 0 0-1.917 2v6.68z" transform="translate(-309.023 -415.58)"/>
                <path id="패스_1057" data-name="패스 1057" class="cls-2" d="M342.565 416.376a2.078 2.078 0 1 1-2.055 2.069 2.081 2.081 0 0 1 2.055-2.069M340.821 422h3.546v11.6h-3.546z" transform="translate(-306.035 -416.376)"/>
                <path id="사각형_109" data-name="사각형 109" class="cls-2" transform="translate(40.552 .328)" d="M0 0h3.548v16.888H0z"/>
                <path id="패스_1058" data-name="패스 1058" class="cls-2" d="M361.4 429.463a5.215 5.215 0 0 1-5.35 3.681 6.155 6.155 0 0 1-.249-12.3c3.582 0 5.795 2.217 5.795 5.95a7.285 7.285 0 0 1-.066 1.1h-8.057a2.5 2.5 0 0 0 2.629 2.237 2.235 2.235 0 0 0 2.328-1.513zm-3.229-3.849a2.068 2.068 0 0 0-2.322-1.966 2.206 2.206 0 0 0-2.3 1.966z" transform="translate(-304.354 -415.58)"/>
                <path id="패스_1059" data-name="패스 1059" class="cls-2" d="M363.846 432.547a2.407 2.407 0 0 0 2.483 1.93c1.776 0 2.87-.858 2.87-2.965v-.532a3.623 3.623 0 0 1-3.1 1.306 5.663 5.663 0 0 1 0-11.312c1.891 0 2.892.825 3.213 1.437v-1.233h3.382v10.15c0 3.333-1.868 6.23-6.193 6.23-3.335 0-5.458-2.051-5.781-4.133zm5.379-5.916a2.484 2.484 0 1 0-4.965 0 2.41 2.41 0 0 0 2.486 2.576 2.386 2.386 0 0 0 2.48-2.576" transform="translate(-302.461 -415.557)"/>
                <path id="패스_1060" data-name="패스 1060" class="cls-2" d="M381.077 431.31a3.286 3.286 0 0 1-3.121 1.808c-3.4 0-5.752-2.58-5.752-6.158 0-3.454 2.207-6.114 5.632-6.114a3.331 3.331 0 0 1 3.218 1.682V421.2h3.428v9.521a20.1 20.1 0 0 0 .094 2.073h-3.411a13.317 13.317 0 0 1-.088-1.378zm-2.661-1.241c1.425 0 2.637-1.124 2.637-3.083 0-2.013-1.184-3.061-2.637-3.061-1.505 0-2.649 1.047-2.649 3.061 0 1.91 1.186 3.083 2.649 3.083" transform="translate(-300.43 -415.58)"/>
                <path id="패스_1061" data-name="패스 1061" class="cls-2" d="M389.131 421.658h2.253v3.109h-2.253v4.333c0 .961.512 1.211 1.282 1.211a4.114 4.114 0 0 0 .925-.118v2.947a4.231 4.231 0 0 1-1.842.325 3.522 3.522 0 0 1-3.867-3.736v-4.964h-2.04v-3.112h.574a1.7 1.7 0 0 0 1.8-1.89v-1.495h3.172z" transform="translate(-298.416 -416.038)"/>
                <path id="패스_1062" data-name="패스 1062" class="cls-2" d="M402.28 429.463a5.2 5.2 0 0 1-5.341 3.681 6.155 6.155 0 0 1-.251-12.3c3.583 0 5.8 2.217 5.8 5.95a9.661 9.661 0 0 1-.064 1.1h-8.069a2.5 2.5 0 0 0 2.633 2.237 2.239 2.239 0 0 0 2.333-1.513zm-3.221-3.849a2.078 2.078 0 0 0-2.327-1.966 2.228 2.228 0 0 0-2.314 1.966z" transform="translate(-297.122 -415.58)"/>
            </g>
            <path id="패스_1063" data-name="패스 1063" class="cls-2" d="M403.945 418.337a2.184 2.184 0 1 1-2.156 2.176 2.176 2.176 0 0 1 2.156-2.176m0 3.935a1.757 1.757 0 1 0-1.685-1.759 1.7 1.7 0 0 0 1.685 1.759m-.279-.581h-.437v-2.377h.817a.76.76 0 0 1 .8.745.72.72 0 0 1-.524.7l.538.938h-.52l-.494-.888h-.184zm.314-1.283c.266 0 .415-.127.415-.345s-.149-.359-.415-.359h-.314v.7z" transform="translate(16.019 .349)"/>
        </g>
    </g>
</svg>
