<svg xmlns="http://www.w3.org/2000/svg" width="256" height="52">
    <defs>
        <style>
            .cls-2{fill:#030404}
        </style>
    </defs>
    <g id="_7" data-name="7" transform="translate(-1512 -793)">
        <path id="사각형_1052" data-name="사각형 1052" transform="translate(1512 793)" style="fill:none;opacity:.2" d="M0 0h256v52H0z"/>
        <g id="그룹_1253" data-name="그룹 1253" transform="translate(1176.671 401.247)">
            <path id="패스_17" data-name="패스 17" class="cls-2" d="M405.005 421.4a3.291 3.291 0 0 1-3.126 1.808c-3.4 0-5.757-2.581-5.757-6.159 0-3.457 2.208-6.119 5.639-6.119a3.341 3.341 0 0 1 3.222 1.683v-1.326h3.431v9.523a19.845 19.845 0 0 0 .094 2.074H405.1a13.279 13.279 0 0 1-.09-1.377zm-2.665-1.241c1.429 0 2.644-1.125 2.644-3.085 0-2.013-1.187-3.06-2.644-3.06-1.506 0-2.65 1.047-2.65 3.06 0 1.913 1.187 3.085 2.65 3.085" transform="translate(15.076 1.108)"/>
            <path id="패스_18" data-name="패스 18" class="cls-2" d="M453.085 421.4a3.289 3.289 0 0 1-3.126 1.808c-3.4 0-5.757-2.581-5.757-6.159 0-3.457 2.208-6.119 5.639-6.119a3.339 3.339 0 0 1 3.222 1.683v-1.326h3.431v9.523a20.245 20.245 0 0 0 .094 2.074h-3.413a13.287 13.287 0 0 1-.09-1.377zm-2.665-1.241c1.429 0 2.644-1.125 2.644-3.085 0-2.013-1.186-3.06-2.644-3.06-1.506 0-2.65 1.047-2.65 3.06 0 1.913 1.187 3.085 2.65 3.085" transform="translate(27.839 1.108)"/>
            <path id="패스_19" data-name="패스 19" class="cls-2" d="M348.591 412.354a2.505 2.505 0 0 0-2.752-2.076 2.03 2.03 0 0 0-2.264 1.772c0 .795.49 1.378 1.632 1.587l2.217.419c3.15.583 4.782 2.614 4.782 4.969 0 2.589-2.169 5.226-6.112 5.226-4.573 0-6.532-2.964-6.765-5.3l3.383-.815a3.074 3.074 0 0 0 3.429 2.845c1.446 0 2.332-.7 2.332-1.726 0-.84-.676-1.445-1.773-1.656l-2.263-.42c-2.8-.535-4.5-2.4-4.5-4.853 0-3.124 2.754-5.319 5.926-5.319 4.129 0 5.692 2.473 6.043 4.41z" transform="translate(0 .069)"/>
            <path id="패스_20" data-name="패스 20" class="cls-2" d="M350.878 422.863v-11.594h3.383v1.33a4.032 4.032 0 0 1 3.336-1.679 3.586 3.586 0 0 1 3.429 1.82 3.972 3.972 0 0 1 3.593-1.82 4.057 4.057 0 0 1 4.292 4.432v7.512h-3.429v-6.718a1.759 1.759 0 0 0-1.844-1.96 1.884 1.884 0 0 0-1.935 1.983v6.7h-3.5v-6.718a1.765 1.765 0 0 0-1.866-1.96 1.886 1.886 0 0 0-1.912 2.008v6.67z" transform="translate(3.066 1.106)"/>
            <path id="패스_21" data-name="패스 21" class="cls-2" d="M368.665 406.753a2.076 2.076 0 1 1-2.054 2.075 2.086 2.086 0 0 1 2.054-2.075zm-1.75 17.217v-11.595h3.546v11.595z" transform="translate(7.242)"/>
            <path id="패스_22" data-name="패스 22" class="cls-2" d="M371.42 423.9v-16.89h3.546v16.89z" transform="translate(8.519 .069)"/>
            <path id="패스_23" data-name="패스 23" class="cls-2" d="M386.843 419.529a5.207 5.207 0 0 1-5.343 3.685 6.153 6.153 0 0 1-.257-12.294c3.593 0 5.808 2.216 5.808 5.949a7.293 7.293 0 0 1-.07 1.1h-8.071a2.508 2.508 0 0 0 2.636 2.24 2.238 2.238 0 0 0 2.332-1.516zm-3.221-3.851a2.078 2.078 0 0 0-2.332-1.959 2.208 2.208 0 0 0-2.309 1.959z" transform="translate(9.591 1.106)"/>
            <path id="패스_24" data-name="패스 24" class="cls-2" d="M388.552 422.6a2.429 2.429 0 0 0 2.5 1.937c1.772 0 2.869-.864 2.869-2.964v-.538a3.6 3.6 0 0 1-3.1 1.307 5.4 5.4 0 0 1-5.39-5.645 5.454 5.454 0 0 1 5.39-5.668 3.513 3.513 0 0 1 3.219 1.445v-1.234h3.383v10.149c0 3.336-1.867 6.229-6.2 6.229-3.337 0-5.459-2.054-5.787-4.129zm5.39-5.9a2.485 2.485 0 1 0-4.968 0 2.406 2.406 0 0 0 2.5 2.566 2.377 2.377 0 0 0 2.467-2.566z" transform="translate(12.237 1.136)"/>
            <path id="패스_25" data-name="패스 25" class="cls-2" d="M412.27 411.905h2.264v3.1h-2.264v4.338c0 .955.514 1.214 1.283 1.214a4.29 4.29 0 0 0 .934-.118v2.941a4.254 4.254 0 0 1-1.844.327 3.52 3.52 0 0 1-3.872-3.733v-4.964h-2.053v-3.1h.582a1.7 1.7 0 0 0 1.8-1.891v-1.492h3.173z" transform="translate(17.889 .47)"/>
            <path id="패스_26" data-name="패스 26" class="cls-2" d="M424.921 419.529a5.207 5.207 0 0 1-5.343 3.685 6.153 6.153 0 0 1-.256-12.294c3.593 0 5.808 2.216 5.808 5.949a7.5 7.5 0 0 1-.07 1.1h-8.07a2.507 2.507 0 0 0 2.635 2.24 2.24 2.24 0 0 0 2.333-1.516zm-3.219-3.851a2.079 2.079 0 0 0-2.332-1.959 2.21 2.21 0 0 0-2.311 1.959z" transform="translate(19.699 1.106)"/>
            <path id="패스_27" data-name="패스 27" class="cls-2" d="M428.927 417.67h-1.306v6.158h-3.686v-16.539h6.555a5.049 5.049 0 0 1 5.367 5.178 4.743 4.743 0 0 1-3.267 4.664l3.36 6.7h-4.06zm.863-3.173c1.516 0 2.333-.842 2.333-2.007 0-1.238-.817-2.007-2.333-2.007h-2.169v4.017z" transform="translate(22.459 .142)"/>
            <path id="패스_28" data-name="패스 28" class="cls-2" d="M445.62 419.529a5.208 5.208 0 0 1-5.343 3.685 6.153 6.153 0 0 1-.257-12.294c3.594 0 5.81 2.216 5.81 5.949a7.253 7.253 0 0 1-.071 1.1h-8.071a2.508 2.508 0 0 0 2.636 2.24 2.24 2.24 0 0 0 2.333-1.516zm-3.221-3.851a2.077 2.077 0 0 0-2.332-1.959 2.208 2.208 0 0 0-2.309 1.959z" transform="translate(25.193 1.106)"/>
            <path id="패스_29" data-name="패스 29" class="cls-2" d="M455.758 423.9v-16.89h3.542v16.89z" transform="translate(30.907 .069)"/>
            <path id="패스_30" data-name="패스 30" class="cls-2" d="M462.14 406.753a2.076 2.076 0 1 1-2.054 2.075 2.086 2.086 0 0 1 2.054-2.075zm-1.749 17.217v-11.595h3.545v11.595z" transform="translate(32.056)"/>
            <path id="패스_31" data-name="패스 31" class="cls-2" d="M475.316 419.529a5.208 5.208 0 0 1-5.343 3.685 6.153 6.153 0 0 1-.256-12.294c3.593 0 5.808 2.216 5.808 5.949a7.481 7.481 0 0 1-.07 1.1h-8.071a2.507 2.507 0 0 0 2.635 2.24 2.24 2.24 0 0 0 2.333-1.516zm-3.219-3.851a2.079 2.079 0 0 0-2.332-1.959 2.21 2.21 0 0 0-2.311 1.959z" transform="translate(33.077 1.106)"/>
            <path id="패스_32" data-name="패스 32" class="cls-2" d="M476.909 419.038a1.651 1.651 0 0 0 1.82 1.564c.91 0 1.353-.491 1.353-1 0-.42-.28-.771-1.143-.957l-1.33-.3c-2.474-.535-3.452-1.935-3.452-3.569 0-2.122 1.865-3.848 4.454-3.848 3.36 0 4.527 2.1 4.643 3.453l-2.94.535a1.522 1.522 0 0 0-1.656-1.422 1.129 1.129 0 0 0-1.259 1c0 .491.4.769.91.863l1.54.3c2.4.49 3.568 1.935 3.568 3.639 0 1.983-1.516 3.919-4.619 3.919-3.639 0-4.8-2.356-4.9-3.639z" transform="translate(35.723 1.106)"/>
        </g>
    </g>
</svg>
