<svg xmlns="http://www.w3.org/2000/svg" width="256" height="52">
    <g data-name="8">
        <path data-name="사각형 1054" style="fill:none;opacity:.2" d="M0 0h256v52H0z"/>
        <g data-name="그룹 164">
            <g data-name="그룹 163">
                <g data-name="그룹 161">
                    <path data-name="패스 1065" d="M13.25 20.669a2.5 2.5 0 0 0-2.75-2.079 2.033 2.033 0 0 0-2.257 1.772c0 .8.494 1.383 1.633 1.588l2.216.419c3.145.587 4.774 2.609 4.774 4.968 0 2.591-2.162 5.228-6.1 5.228-4.568 0-6.536-2.965-6.767-5.3l3.384-.816c.138 1.518 1.161 2.847 3.426 2.847 1.443 0 2.329-.7 2.329-1.722 0-.838-.678-1.444-1.771-1.666l-2.257-.419c-2.8-.535-4.5-2.4-4.5-4.85 0-3.123 2.75-5.314 5.921-5.314 4.122 0 5.685 2.467 6.03 4.406z"/>
                    <path data-name="패스 1066" d="M18.602 32.219v-11.6h3.375v1.329a4.06 4.06 0 0 1 3.34-1.68 3.6 3.6 0 0 1 3.43 1.824 3.945 3.945 0 0 1 3.579-1.824 4.053 4.053 0 0 1 4.288 4.432v7.518h-3.42v-6.722a1.756 1.756 0 0 0-1.846-1.953 1.887 1.887 0 0 0-1.937 1.981v6.694h-3.49v-6.724a1.761 1.761 0 0 0-1.865-1.956 1.889 1.889 0 0 0-1.918 2v6.678z"/>
                    <path data-name="패스 1067" d="M40.545 15a2.078 2.078 0 1 1-2.056 2.069A2.08 2.08 0 0 1 40.545 15M38.8 20.62h3.546v11.6H38.8z"/>
                    <path data-name="사각형 116" d="M44.568 15.328h3.55v16.888h-3.55z"/>
                    <path data-name="패스 1068" d="M61.064 28.883a5.217 5.217 0 0 1-5.352 3.681 6.155 6.155 0 0 1-.251-12.3c3.585 0 5.8 2.217 5.8 5.95a7.283 7.283 0 0 1-.066 1.1h-8.06a2.5 2.5 0 0 0 2.63 2.237 2.234 2.234 0 0 0 2.328-1.513zm-3.23-3.849a2.069 2.069 0 0 0-2.323-1.967 2.206 2.206 0 0 0-2.305 1.967z"/>
                    <path data-name="패스 1069" d="M65.409 31.993a2.406 2.406 0 0 0 2.484 1.93c1.775 0 2.87-.858 2.87-2.965v-.532a3.621 3.621 0 0 1-3.1 1.306 5.663 5.663 0 0 1 0-11.312c1.892 0 2.891.825 3.214 1.437v-1.233h3.378v10.15c0 3.333-1.868 6.23-6.194 6.23-3.336 0-5.461-2.051-5.783-4.134zm5.38-5.916a2.484 2.484 0 1 0-4.966 0 2.485 2.485 0 1 0 4.966 0"/>
                    <path data-name="패스 1070" d="M84.678 30.729a3.283 3.283 0 0 1-3.121 1.809c-3.4 0-5.755-2.58-5.755-6.158 0-3.454 2.207-6.114 5.633-6.114a3.333 3.333 0 0 1 3.22 1.682v-1.326h3.428v9.52a20 20 0 0 0 .1 2.075h-3.412a13.284 13.284 0 0 1-.089-1.378zm-2.662-1.239c1.427 0 2.639-1.124 2.639-3.083 0-2.013-1.184-3.061-2.639-3.061-1.506 0-2.65 1.047-2.65 3.061 0 1.91 1.188 3.083 2.65 3.083"/>
                    <path data-name="패스 1071" d="M94.75 20.621h2.253v3.109H94.75v4.334c0 .961.511 1.211 1.282 1.211a4.2 4.2 0 0 0 .925-.118v2.947a4.254 4.254 0 0 1-1.843.325 3.523 3.523 0 0 1-3.869-3.736v-4.964h-2.041v-3.112h.576a1.7 1.7 0 0 0 1.8-1.89v-1.5h3.173z"/>
                    <path data-name="패스 1072" d="M109.199 28.883a5.2 5.2 0 0 1-5.344 3.681 6.155 6.155 0 0 1-.25-12.3c3.584 0 5.8 2.217 5.8 5.95a9.759 9.759 0 0 1-.062 1.1h-8.072a2.5 2.5 0 0 0 2.633 2.237 2.241 2.241 0 0 0 2.335-1.513zm-3.222-3.849a2.079 2.079 0 0 0-2.329-1.967 2.228 2.228 0 0 0-2.313 1.967z"/>
                </g>
                <g data-name="그룹 162">
                    <path data-name="패스 1073" d="M129.842 21.35a3.059 3.059 0 0 0-3.188-2.574 2.665 2.665 0 0 0-2.911 2.509 2.183 2.183 0 0 0 1.934 2.19l2.252.489c2.508.554 3.91 2.128 3.91 4.233 0 2.338-2 4.465-5.206 4.465-3.634 0-5.356-2.338-5.632-4.486l2-.637a3.424 3.424 0 0 0 3.613 3.231c2.083 0 3.1-1.085 3.1-2.4a2.455 2.455 0 0 0-2.252-2.34l-2.146-.468c-2.146-.468-3.677-1.871-3.677-4.124a4.8 4.8 0 0 1 4.973-4.488c3.4 0 4.761 2.105 5.1 3.744z"/>
                    <path data-name="패스 1074" d="M136.308 22.116h2.21v1.807h-2.21v5.317c0 .937.381 1.4 1.423 1.4a4.055 4.055 0 0 0 .786-.085v1.7a4.346 4.346 0 0 1-1.361.191 2.653 2.653 0 0 1-2.847-2.912v-5.615h-1.956v-1.807h.552a1.43 1.43 0 0 0 1.573-1.574v-1.659h1.83z"/>
                    <path data-name="패스 1075" d="M150.46 27.218a5.232 5.232 0 1 1-5.227-5.421 5.162 5.162 0 0 1 5.227 5.421zm-2.04 0c0-2.36-1.488-3.637-3.187-3.637s-3.188 1.277-3.188 3.637c0 2.383 1.488 3.658 3.188 3.658s3.183-1.275 3.183-3.658z"/>
                    <path data-name="패스 1076" d="M157.359 32.344h-2.019l-4.144-10.229h2.25l2.913 7.889 2.931-7.889h2.147z"/>
                    <path data-name="패스 1077" d="M171.937 29.431a4.634 4.634 0 0 1-4.59 3.231 5.452 5.452 0 0 1-.255-10.865c3.146 0 4.909 2.168 4.909 5.358a4.31 4.31 0 0 1-.042.637h-7.692a3.036 3.036 0 0 0 3.081 3.105 2.785 2.785 0 0 0 2.869-2.063zm-2.018-3.254a2.577 2.577 0 0 0-2.806-2.615 2.75 2.75 0 0 0-2.784 2.615z"/>
                </g>
            </g>
            <path data-name="패스 1078" d="M112.789 17.31a2.184 2.184 0 1 1-2.156 2.176 2.174 2.174 0 0 1 2.156-2.176m0 3.935a1.757 1.757 0 1 0-1.685-1.759 1.7 1.7 0 0 0 1.685 1.759m-.279-.582h-.437v-2.376h.819a.759.759 0 0 1 .8.745.72.72 0 0 1-.523.7l.538.937h-.52l-.494-.887h-.185zm.317-1.282c.265 0 .414-.127.414-.345s-.15-.36-.414-.36h-.317v.706z"/>
        </g>
    </g>
</svg>
