<svg xmlns="http://www.w3.org/2000/svg" width="256" height="52" viewBox="0 0 256 52">
  <g id="_13" data-name="13" transform="translate(-1512 -106)">
    <rect id="사각형_135" data-name="사각형 135" width="256" height="52" transform="translate(1512 106)" fill="none" opacity="0"/>
    <g id="그룹_1318" data-name="그룹 1318" transform="translate(1183.632 -234.021)">
      <g id="그룹_20" data-name="그룹 20" transform="translate(332.368 355.026)">
        <g id="그룹_18" data-name="그룹 18">
          <path id="패스_203" data-name="패스 203" d="M341.623,360.645a2.5,2.5,0,0,0-2.752-2.079,2.035,2.035,0,0,0-2.258,1.772c0,.8.495,1.384,1.634,1.588l2.218.419c3.145.587,4.777,2.609,4.777,4.968,0,2.591-2.163,5.228-6.1,5.228-4.57,0-6.541-2.965-6.77-5.294l3.384-.818c.139,1.518,1.163,2.847,3.429,2.847,1.443,0,2.329-.7,2.329-1.722,0-.838-.679-1.444-1.772-1.666l-2.257-.419c-2.807-.535-4.507-2.4-4.507-4.849,0-3.124,2.753-5.315,5.924-5.315,4.124,0,5.689,2.468,6.034,4.406Z" transform="translate(-332.368 -354.976)"/>
          <path id="패스_204" data-name="패스 204" d="M344.77,371.449v-11.6h3.38v1.329a4.062,4.062,0,0,1,3.342-1.68,3.6,3.6,0,0,1,3.43,1.824A3.951,3.951,0,0,1,358.5,359.5a4.055,4.055,0,0,1,4.292,4.432v7.518l-3.423,0v-6.722a1.756,1.756,0,0,0-1.846-1.953,1.888,1.888,0,0,0-1.939,1.983v6.693l-3.491,0v-6.724a1.762,1.762,0,0,0-1.867-1.956,1.889,1.889,0,0,0-1.918,2v6.678Z" transform="translate(-330.16 -354.23)"/>
          <path id="패스_205" data-name="패스 205" d="M363.719,355.026a2.078,2.078,0,1,1-2.057,2.069,2.08,2.08,0,0,1,2.057-2.069m-1.746,5.62h3.549v11.6h-3.549Z" transform="translate(-327.152 -355.026)"/>
          <rect id="사각형_22" data-name="사각형 22" width="3.552" height="16.888" transform="translate(40.593 0.328)"/>
          <path id="패스_206" data-name="패스 206" d="M382.559,368.113a5.22,5.22,0,0,1-5.355,3.681,6.155,6.155,0,0,1-.25-12.3c3.586,0,5.8,2.217,5.8,5.95a7.27,7.27,0,0,1-.066,1.1h-8.065a2.5,2.5,0,0,0,2.632,2.237,2.237,2.237,0,0,0,2.33-1.513Zm-3.233-3.848A2.069,2.069,0,0,0,377,362.3a2.207,2.207,0,0,0-2.307,1.967Z" transform="translate(-325.461 -354.23)"/>
          <path id="패스_207" data-name="패스 207" d="M385,371.2a2.406,2.406,0,0,0,2.485,1.93c1.778,0,2.873-.856,2.873-2.965v-.532a3.628,3.628,0,0,1-3.1,1.306,5.663,5.663,0,0,1,0-11.312c1.892,0,2.893.825,3.215,1.437v-1.233h3.386v10.15c0,3.333-1.87,6.229-6.2,6.229-3.339,0-5.464-2.051-5.786-4.134Zm5.384-5.916a2.486,2.486,0,1,0-4.97,0,2.411,2.411,0,0,0,2.488,2.576,2.387,2.387,0,0,0,2.482-2.576" transform="translate(-323.554 -354.207)"/>
          <path id="패스_208" data-name="패스 208" d="M402.238,369.96a3.287,3.287,0,0,1-3.124,1.808c-3.4,0-5.757-2.58-5.757-6.158,0-3.454,2.209-6.114,5.637-6.114a3.333,3.333,0,0,1,3.221,1.682v-1.326h3.432v9.52a20.131,20.131,0,0,0,.094,2.075h-3.414a13.663,13.663,0,0,1-.088-1.378Zm-2.664-1.241c1.427,0,2.64-1.124,2.64-3.083,0-2.013-1.185-3.061-2.64-3.061-1.507,0-2.652,1.047-2.652,3.061,0,1.91,1.188,3.083,2.652,3.083" transform="translate(-321.509 -354.23)"/>
          <path id="패스_209" data-name="패스 209" d="M410.288,360.309h2.256v3.109h-2.256v4.334c0,.961.512,1.211,1.283,1.211a4.122,4.122,0,0,0,.926-.118v2.949a4.259,4.259,0,0,1-1.842.324,3.525,3.525,0,0,1-3.872-3.736v-4.964l-2.042,0v-3.112h.575a1.7,1.7,0,0,0,1.8-1.89v-1.5h3.175Z" transform="translate(-319.482 -354.688)"/>
          <path id="패스_210" data-name="패스 210" d="M423.444,368.113a5.2,5.2,0,0,1-5.346,3.681,6.155,6.155,0,0,1-.251-12.3c3.587,0,5.8,2.217,5.8,5.95a9.636,9.636,0,0,1-.064,1.1H415.51a2.5,2.5,0,0,0,2.634,2.237,2.24,2.24,0,0,0,2.335-1.513Zm-3.223-3.848a2.08,2.08,0,0,0-2.33-1.967,2.228,2.228,0,0,0-2.315,1.967Z" transform="translate(-318.179 -354.23)"/>
        </g>
        <g id="그룹_19" data-name="그룹 19" transform="translate(117.63 1.799)">
          <path id="패스_211" data-name="패스 211" d="M442,372.028v-6.7h-7.7v6.7H432.22V356.951H434.3v6.443H442v-6.443h2.085v15.077Z" transform="translate(-432.22 -356.482)"/>
          <path id="패스_212" data-name="패스 212" d="M454.828,366.217A5.234,5.234,0,1,1,449.6,360.8,5.164,5.164,0,0,1,454.828,366.217Zm-2.042,0c0-2.361-1.488-3.637-3.19-3.637s-3.189,1.276-3.189,3.637c0,2.383,1.488,3.659,3.189,3.659S452.787,368.6,452.787,366.217Z" transform="translate(-430.057 -355.798)"/>
          <path id="패스_213" data-name="패스 213" d="M455.141,372.076v-15.4h2v15.4Z" transform="translate(-428.139 -356.531)"/>
          <path id="패스_214" data-name="패스 214" d="M466.749,370.523a3.423,3.423,0,0,1-3.168,1.828c-3,0-4.849-2.381-4.849-5.423,0-2.892,1.957-5.358,4.849-5.358a3.142,3.142,0,0,1,3.125,1.722v-6.615h1.978v13.5a16.269,16.269,0,0,0,.106,1.893h-1.934a8.559,8.559,0,0,1-.107-1.382Zm-2.977.064c1.829,0,2.956-1.6,2.956-3.7s-1.1-3.551-2.935-3.551-3.019,1.488-3.019,3.593S461.858,370.587,463.772,370.587Z" transform="translate(-427.5 -356.531)"/>
          <path id="패스_215" data-name="패스 215" d="M470.841,356.553A1.435,1.435,0,1,1,469.417,358,1.434,1.434,0,0,1,470.841,356.553Zm-.978,15.546V361.87h1.977V372.1Z" transform="translate(-425.597 -356.553)"/>
          <path id="패스_216" data-name="패스 216" d="M476.09,371.34h-2V361.111h1.957v1.467a3.5,3.5,0,0,1,3.147-1.765c2.446,0,3.658,1.765,3.658,4.041v6.486h-2v-6.146c0-1.424-.595-2.574-2.381-2.574-1.574,0-2.382,1.256-2.382,2.807Z" transform="translate(-424.765 -355.795)"/>
          <path id="패스_217" data-name="패스 217" d="M485.266,371.429a2.72,2.72,0,0,0,2.786,2.51c2.148,0,3.125-1.106,3.125-3.317v-1.467a3.406,3.406,0,0,1-3.125,1.68,4.973,4.973,0,0,1,0-9.931,3.228,3.228,0,0,1,3.147,1.615v-1.424h1.978v9.463c0,2.594-1.276,5.125-5.125,5.125a4.48,4.48,0,0,1-4.722-3.806Zm6-5.549c0-1.978-1.191-3.276-2.914-3.276a2.953,2.953,0,0,0-2.956,3.276c0,2,1.149,3.275,2.956,3.275C490.073,369.155,491.264,367.857,491.264,365.88Z" transform="translate(-423.12 -355.778)"/>
          <path id="패스_218" data-name="패스 218" d="M495.119,368.047a2.182,2.182,0,0,0,2.382,1.914c1.127,0,1.743-.638,1.743-1.361,0-.638-.468-1.129-1.318-1.321l-1.743-.382a2.91,2.91,0,0,1-2.552-2.871,3.485,3.485,0,0,1,3.635-3.231,3.628,3.628,0,0,1,3.892,2.742l-1.765.659a1.985,1.985,0,0,0-2.128-1.7,1.542,1.542,0,0,0-1.7,1.359c0,.618.383,1.064,1.17,1.235l1.659.362c1.851.4,2.828,1.53,2.828,3.041,0,1.445-1.212,3.168-3.743,3.168-2.807,0-4-1.807-4.168-2.977Z" transform="translate(-421.343 -355.798)"/>
        </g>
      </g>
      <path id="패스_219" data-name="패스 219" d="M425.1,356.987a2.184,2.184,0,1,1-2.157,2.176,2.176,2.176,0,0,1,2.157-2.176m0,3.935a1.757,1.757,0,1,0-1.687-1.759,1.7,1.7,0,0,0,1.687,1.759m-.279-.581h-.437v-2.377h.818a.76.76,0,0,1,.8.745.72.72,0,0,1-.524.7l.538.938H425.5l-.495-.888h-.184Zm.315-1.283c.266,0,.416-.127.416-.345s-.15-.359-.416-.359h-.315v.7Z" transform="translate(16.126 0.349)"/>
    </g>
  </g>
</svg>
