<svg xmlns="http://www.w3.org/2000/svg" width="256" height="52" viewBox="0 0 256 52">
    <defs>
        <style>
            .cls-2{fill:#231f20}.cls-3{fill:#1a1818}
        </style>
    </defs>
    <g id="_12" data-name="12" transform="translate(-1512 -1541)">
        <path id="사각형_1062" data-name="사각형 1062" transform="translate(1512 1541)" style="fill:none;opacity:.2" d="M0 0h256v52H0z"/>
        <g id="그룹_254" data-name="그룹 254" transform="translate(949.935 1452.357)">
            <path id="패스_1519" data-name="패스 1519" class="cls-2" d="M566.065 112.983a7.973 7.973 0 1 1 7.963 7.989 7.9 7.9 0 0 1-7.963-7.989m12.92 0a4.958 4.958 0 1 0-4.957 5.026 4.868 4.868 0 0 0 4.957-5.026"/>
            <path id="패스_1520" data-name="패스 1520" class="cls-2" d="M590.08 109.471v3.239a2.757 2.757 0 0 0-3.334 2.858v5.377h-2.829V109.7h2.829v1.934a3.37 3.37 0 0 1 3.334-2.16" transform="translate(-.011)"/>
            <path id="패스_1521" data-name="패스 1521" class="cls-2" d="M602.567 109.7v11.24h-2.83v-1.326a4.323 4.323 0 0 1-3.575 1.641c-2.917 0-5.331-2.585-5.331-5.934s2.414-5.934 5.331-5.934a4.32 4.32 0 0 1 3.575 1.641V109.7zm-2.83 5.62a3.04 3.04 0 1 0-3.048 3.17 2.987 2.987 0 0 0 3.048-3.17" transform="translate(.35)"/>
            <path id="패스_1522" data-name="패스 1522" class="cls-2" d="M615.158 114.04v6.9h-2.829v-6.54a2.069 2.069 0 0 0-2.172-2.317c-1.382 0-2.413.832-2.413 2.79v6.073h-2.83V109.7h2.83v1.26a3.7 3.7 0 0 1 3.268-1.575c2.325 0 4.146 1.665 4.146 4.657" transform="translate(.543)"/>
            <path id="패스_1523" data-name="패스 1523" class="cls-2" d="M628.512 109.691v10.447c0 3.6-2.83 5.224-5.724 5.224a5.554 5.554 0 0 1-5.2-2.678L620 121.3a2.85 2.85 0 0 0 2.874 1.536 2.553 2.553 0 0 0 2.873-2.7v-1.185a4.193 4.193 0 0 1-3.511 1.668 5.621 5.621 0 0 1 0-11.238 4.191 4.191 0 0 1 3.511 1.669v-1.361zM625.749 115a3.072 3.072 0 1 0-3.072 3.007 2.929 2.929 0 0 0 3.072-3.007" transform="translate(.717 .281)"/>
            <path id="패스_1524" data-name="패스 1524" class="cls-2" d="M636.349 118.623a3.012 3.012 0 0 0 2.457-1.125l2.281 1.35a5.506 5.506 0 0 1-4.781 2.4 5.936 5.936 0 0 1-.22-11.87 5.621 5.621 0 0 1 5.549 5.935 6.943 6.943 0 0 1-.109 1.191h-8.269a2.881 2.881 0 0 0 3.092 2.113m2.457-4.361a2.676 2.676 0 0 0-2.72-2.271 2.748 2.748 0 0 0-2.873 2.271z" transform="translate(.906)"/>
            <path id="패스_1525" data-name="패스 1525" class="cls-3" d="M658.068 110.459a5.142 5.142 0 0 1-5.243 5.157h-2.7v5.048H647.1V105.3h5.724a5.143 5.143 0 0 1 5.243 5.158m-3.005 0a2.215 2.215 0 0 0-2.238-2.327h-2.7v4.653h2.7a2.228 2.228 0 0 0 2.238-2.326" transform="translate(1.14)"/>
            <path id="사각형_1152" data-name="사각형 1152" class="cls-3" transform="translate(660.622 104.643)" d="M0 0h2.829v16.022H0z"/>
            <path id="패스_1526" data-name="패스 1526" class="cls-3" d="M675.73 109.7v11.24h-2.83v-1.325a4.328 4.328 0 0 1-3.576 1.641c-2.917 0-5.331-2.585-5.331-5.935s2.414-5.934 5.331-5.934a4.328 4.328 0 0 1 3.576 1.641V109.7zm-2.828 5.62a3.041 3.041 0 1 0-3.049 3.17 2.987 2.987 0 0 0 3.049-3.17" transform="translate(1.386)"/>
            <path id="패스_1527" data-name="패스 1527" class="cls-3" d="M688.322 114.039v6.906h-2.829V114.4a2.069 2.069 0 0 0-2.172-2.317c-1.382 0-2.413.832-2.413 2.789v6.074h-2.829V109.7h2.829v1.26a3.7 3.7 0 0 1 3.268-1.575c2.326 0 4.146 1.665 4.146 4.656" transform="translate(1.871)"/>
            <path id="패스_1528" data-name="패스 1528" class="cls-3" d="M695.994 118.623a3.013 3.013 0 0 0 2.457-1.125l2.281 1.349a5.5 5.5 0 0 1-4.782 2.406 5.936 5.936 0 0 1-.218-11.87 5.621 5.621 0 0 1 5.549 5.935 6.827 6.827 0 0 1-.11 1.19H692.9a2.883 2.883 0 0 0 3.093 2.114m2.457-4.361a2.677 2.677 0 0 0-2.719-2.271 2.751 2.751 0 0 0-2.875 2.271z" transform="translate(1.864)"/>
            <path id="패스_1529" data-name="패스 1529" class="cls-3" d="M706.729 112.412v4.565c0 1.186.856 1.207 2.479 1.12v2.567c-3.971.439-5.309-.724-5.309-3.687v-4.565h-1.909v-2.721h1.91v-2.217l2.829-.856v3.073h2.479v2.721z" transform="translate(1.856)"/>
        </g>
    </g>
</svg>
