<svg xmlns="http://www.w3.org/2000/svg" width="121" height="24">
    <defs>
        <style>
            .cls-1{fill:#fff}
        </style>
    </defs>
    <g id="그룹_68" data-name="그룹 68" transform="translate(-73.101 -504.185)">
        <g id="그룹_2" data-name="그룹 2" transform="translate(73.101 504.185)">
            <g id="그룹_1" data-name="그룹 1">
                <path id="패스_1" data-name="패스 1" class="cls-1" d="M83.191 510.515a2.724 2.724 0 0 0-3-2.268 2.215 2.215 0 0 0-2.461 1.935c0 .871.541 1.506 1.779 1.729l2.414.46c3.433.638 5.212 2.843 5.212 5.417 0 2.833-2.359 5.708-6.654 5.708-4.985 0-7.129-3.237-7.383-5.779l3.691-.89c.152 1.659 1.27 3.107 3.738 3.107 1.575 0 2.54-.761 2.54-1.88 0-.913-.741-1.577-1.928-1.816l-2.466-.46c-3.06-.583-4.909-2.616-4.909-5.291 0-3.41 3-5.8 6.458-5.8 4.494 0 6.2 2.7 6.576 4.809z" transform="translate(-73.101 -504.332)"/>
                <path id="패스_2" data-name="패스 2" class="cls-1" d="M95.675 525.364v-12.655h3.683v1.446a4.433 4.433 0 0 1 3.642-1.831 3.92 3.92 0 0 1 3.738 1.988 4.313 4.313 0 0 1 3.906-1.988c2.4 0 4.676 1.4 4.676 4.836v8.2l-3.731-.005v-7.335a1.915 1.915 0 0 0-2.011-2.129 2.061 2.061 0 0 0-2.111 2.165v7.3l-3.81.005v-7.341a1.917 1.917 0 0 0-2.035-2.129 2.057 2.057 0 0 0-2.087 2.182v7.288z" transform="translate(-79.75 -506.576)"/>
                <path id="패스_3" data-name="패스 3" class="cls-1" d="M128.667 504.185a2.266 2.266 0 1 1-2.241 2.257 2.268 2.268 0 0 1 2.241-2.257m-1.9 6.128h3.872v12.655h-3.872z" transform="translate(-88.807 -504.185)"/>
                <path id="사각형_1" data-name="사각형 1" class="cls-1" transform="translate(44.249 .353)" d="M0 0h3.872v18.429H0z"/>
                <path id="패스_4" data-name="패스 4" class="cls-1" d="M156.141 521.721a5.688 5.688 0 0 1-5.834 4.017 6.717 6.717 0 0 1-.274-13.421c3.91 0 6.325 2.422 6.325 6.494a7.7 7.7 0 0 1-.076 1.2h-8.788a2.73 2.73 0 0 0 2.868 2.44 2.437 2.437 0 0 0 2.539-1.65zm-3.522-4.2a2.256 2.256 0 0 0-2.531-2.145 2.409 2.409 0 0 0-2.516 2.145z" transform="translate(-93.901 -506.574)"/>
                <path id="패스_5" data-name="패스 5" class="cls-1" d="M166.621 525.18a2.625 2.625 0 0 0 2.708 2.105c1.936 0 3.131-.936 3.131-3.235v-.581a3.953 3.953 0 0 1-3.381 1.423 6.178 6.178 0 0 1 0-12.341c2.061 0 3.153.9 3.5 1.569v-1.345h3.692v11.073c0 3.638-2.037 6.794-6.756 6.794-3.642 0-5.956-2.236-6.309-4.506zm5.867-6.454a2.709 2.709 0 1 0-5.415 0 2.628 2.628 0 0 0 2.712 2.809 2.6 2.6 0 0 0 2.7-2.809" transform="translate(-99.641 -506.643)"/>
                <path id="패스_6" data-name="패스 6" class="cls-1" d="M193.8 523.738a3.586 3.586 0 0 1-3.406 1.972c-3.7 0-6.273-2.816-6.273-6.719 0-3.771 2.406-6.674 6.144-6.674a3.639 3.639 0 0 1 3.511 1.836v-1.446h3.738v10.387a21.871 21.871 0 0 0 .1 2.263h-3.719a14.492 14.492 0 0 1-.1-1.5zm-2.9-1.355c1.556 0 2.88-1.227 2.88-3.366 0-2.2-1.292-3.338-2.88-3.338-1.642 0-2.887 1.141-2.887 3.338 0 2.087 1.293 3.366 2.887 3.366" transform="translate(-105.799 -506.574)"/>
                <path id="패스_7" data-name="패스 7" class="cls-1" d="M210.881 511.332h2.458v3.389h-2.458v4.731c0 1.047.561 1.321 1.4 1.321a4.805 4.805 0 0 0 1.012-.128v3.216a4.627 4.627 0 0 1-2.011.353c-2.613 0-4.219-1.553-4.219-4.076v-5.417h-2.226v-3.392h.627a1.856 1.856 0 0 0 1.96-2.064v-1.632h3.459z" transform="translate(-111.901 -505.199)"/>
                <path id="패스_8" data-name="패스 8" class="cls-1" d="M230.565 521.721a5.675 5.675 0 0 1-5.826 4.017 6.717 6.717 0 0 1-.274-13.421c3.91 0 6.325 2.422 6.325 6.494a10.455 10.455 0 0 1-.071 1.2h-8.8a2.73 2.73 0 0 0 2.868 2.44 2.445 2.445 0 0 0 2.547-1.65zm-3.514-4.2a2.266 2.266 0 0 0-2.54-2.145 2.431 2.431 0 0 0-2.523 2.145z" transform="translate(-115.824 -506.574)"/>
            </g>
        </g>
        <path id="패스_9" data-name="패스 9" class="cls-1" d="M240.284 507.636a2.383 2.383 0 1 1-2.349 2.374 2.372 2.372 0 0 1 2.349-2.374m0 4.293a1.917 1.917 0 1 0-1.838-1.919 1.854 1.854 0 0 0 1.838 1.919m-.3-.633h-.484V508.7h.893a.829.829 0 0 1 .876.813.786.786 0 0 1-.572.758l.586 1.023h-.567l-.538-.968h-.2zm.344-1.4c.29 0 .453-.138.453-.375 0-.253-.163-.394-.453-.394h-.344v.769z" transform="translate(-48.549 -1.014)"/>
    </g>
</svg>
