<svg xmlns="http://www.w3.org/2000/svg" width="256" height="52">
    <g data-name="2">
        <path data-name="사각형 1042" style="fill:none;opacity:.2" d="M0 0h256v52H0z"/>
        <g data-name="그룹 138">
            <g data-name="그룹 137">
                <g data-name="그룹 135">
                    <path data-name="패스 988" d="M13.249 20.669a2.5 2.5 0 0 0-2.75-2.079 2.033 2.033 0 0 0-2.257 1.772c0 .8.495 1.383 1.633 1.587l2.216.421c3.145.587 4.774 2.608 4.774 4.967 0 2.592-2.16 5.23-6.1 5.23-4.568 0-6.537-2.966-6.766-5.3l3.383-.816c.139 1.519 1.162 2.846 3.426 2.846 1.443 0 2.329-.7 2.329-1.722 0-.836-.678-1.444-1.771-1.666L9.11 25.49c-2.806-.535-4.5-2.4-4.5-4.849 0-3.124 2.75-5.316 5.921-5.316 4.122 0 5.685 2.468 6.03 4.406z"/>
                    <path data-name="패스 989" d="M18.602 32.22v-11.6h3.378v1.329a4.058 4.058 0 0 1 3.34-1.679 3.6 3.6 0 0 1 3.429 1.823 3.948 3.948 0 0 1 3.579-1.823 4.053 4.053 0 0 1 4.288 4.432v7.518h-3.42v-6.721a1.755 1.755 0 0 0-1.845-1.953 1.887 1.887 0 0 0-1.934 1.978v6.693h-3.49v-6.724a1.762 1.762 0 0 0-1.865-1.957 1.89 1.89 0 0 0-1.917 2v6.678z"/>
                    <path data-name="패스 990" d="M40.546 15a2.078 2.078 0 1 1-2.056 2.068A2.08 2.08 0 0 1 40.546 15m-1.745 5.62h3.547v11.6h-3.547z"/>
                    <path data-name="사각형 94" d="M44.569 15.328h3.55v16.889h-3.55z"/>
                    <path data-name="패스 991" d="M61.066 28.884a5.217 5.217 0 0 1-5.352 3.682 6.156 6.156 0 0 1-.25-12.3c3.584 0 5.8 2.217 5.8 5.951a7.274 7.274 0 0 1-.066 1.1h-8.06a2.5 2.5 0 0 0 2.63 2.238 2.237 2.237 0 0 0 2.33-1.511zm-3.231-3.849a2.068 2.068 0 0 0-2.323-1.967 2.206 2.206 0 0 0-2.305 1.967z"/>
                    <path data-name="패스 992" d="M65.411 31.993a2.407 2.407 0 0 0 2.484 1.93c1.777 0 2.872-.857 2.872-2.965v-.531a3.628 3.628 0 0 1-3.1 1.305 5.663 5.663 0 0 1 0-11.312 3.476 3.476 0 0 1 3.213 1.438v-1.235h3.383v10.151c0 3.334-1.867 6.23-6.194 6.23-3.337 0-5.461-2.051-5.783-4.133zm5.382-5.917a2.485 2.485 0 1 0-4.967 0 2.485 2.485 0 1 0 4.967 0"/>
                    <path data-name="패스 993" d="M84.682 30.73a3.287 3.287 0 0 1-3.122 1.808c-3.4 0-5.754-2.579-5.754-6.158 0-3.454 2.208-6.114 5.634-6.114a3.334 3.334 0 0 1 3.219 1.682v-1.325h3.43v9.52a20.1 20.1 0 0 0 .094 2.074h-3.412a13.286 13.286 0 0 1-.088-1.377zm-2.662-1.239c1.426 0 2.638-1.125 2.638-3.084 0-2.013-1.184-3.06-2.638-3.06-1.506 0-2.65 1.046-2.65 3.06 0 1.91 1.187 3.084 2.65 3.084"/>
                    <path data-name="패스 994" d="M94.753 20.62h2.253v3.11h-2.253v4.334c0 .96.512 1.21 1.282 1.21a4.113 4.113 0 0 0 .925-.118v2.949a4.248 4.248 0 0 1-1.843.325 3.524 3.524 0 0 1-3.869-3.737V23.73h-2.04v-3.113h.575a1.7 1.7 0 0 0 1.8-1.89v-1.495h3.17z"/>
                    <path data-name="패스 995" d="M109.203 28.884a5.2 5.2 0 0 1-5.343 3.682 6.156 6.156 0 0 1-.251-12.3c3.585 0 5.8 2.217 5.8 5.951a9.624 9.624 0 0 1-.064 1.1h-8.072a2.505 2.505 0 0 0 2.634 2.238 2.24 2.24 0 0 0 2.333-1.513zm-3.222-3.849a2.078 2.078 0 0 0-2.33-1.965 2.226 2.226 0 0 0-2.313 1.967z"/>
                </g>
                <g data-name="그룹 136">
                    <path data-name="패스 996" d="M125.918 26.177h-2.253v6.167h-2.1V17.267h5.675a4.364 4.364 0 0 1 4.612 4.486 4.22 4.22 0 0 1-3.656 4.274l3.592 6.317h-2.423zm.935-1.872a2.6 2.6 0 1 0 0-5.167h-3.188v5.167z"/>
                    <path data-name="패스 997" d="M137.329 26.177v6.167h-2.083V17.267h5.483a4.459 4.459 0 1 1 0 8.91zm3.019-1.872c1.806 0 2.91-1 2.91-2.552 0-1.6-1.1-2.615-2.91-2.615h-3.019v5.167z"/>
                    <path data-name="패스 998" d="M147.507 24.794a7.512 7.512 0 0 1 7.565-7.847 6.542 6.542 0 0 1 6.7 4.785l-1.934.659a4.552 4.552 0 0 0-4.761-3.53c-2.8 0-5.441 1.936-5.441 5.933s2.636 5.977 5.441 5.977 4.528-1.7 4.8-3.765h-6.081v-1.87h8.183a4.455 4.455 0 0 1 .021.531c0 3.828-2.358 7-6.929 7a7.53 7.53 0 0 1-7.564-7.873z"/>
                </g>
            </g>
            <path data-name="패스 999" d="M112.794 17.309a2.184 2.184 0 1 1-2.157 2.176 2.177 2.177 0 0 1 2.157-2.176m0 3.935a1.757 1.757 0 1 0-1.686-1.759 1.7 1.7 0 0 0 1.686 1.759m-.279-.581h-.434v-2.377h.817a.761.761 0 0 1 .8.745.72.72 0 0 1-.524.7l.538.938h-.52l-.495-.887h-.184zm.314-1.283c.266 0 .416-.126.416-.345s-.15-.359-.416-.359h-.314v.7z"/>
        </g>
    </g>
</svg>
